/* XPM */
static char *a012a92c98514c04897ad7d8746c3c54nF2GFGuS4y5pPUxO[] = {
/* columns rows colors chars-per-pixel */
"80 80 172 2 ",
"   c #020203",
".  c #060905",
"X  c #090906",
"o  c #050509",
"O  c #09070C",
"+  c #0A0A0C",
"@  c #07090A",
"#  c #110E0E",
"$  c #0D110B",
"%  c #11120F",
"&  c #0D0D11",
"*  c #110E13",
"=  c #0E1113",
"-  c #121214",
";  c #171915",
":  c #191916",
">  c #151419",
",  c #19161A",
"<  c #1C1B1C",
"1  c #211F1D",
"2  c #1D1D21",
"3  c #201D20",
"4  c #232325",
"5  c #232328",
"6  c #28262A",
"7  c #2B2B2C",
"8  c #302E2D",
"9  c #2E312D",
"0  c #2E2D32",
"q  c #302F34",
"w  c #2D3036",
"e  c #343335",
"r  c #353836",
"t  c #35353A",
"y  c #38373B",
"u  c #3B3B3C",
"i  c #383836",
"p  c #41423F",
"a  c #3E3E42",
"s  c #403E44",
"d  c #3F4348",
"f  c #434345",
"g  c #464549",
"h  c #4A4A4B",
"j  c #4F504B",
"k  c #51534F",
"l  c #4C4C51",
"z  c #524F52",
"x  c #545454",
"c  c #555559",
"v  c #5B5B5C",
"b  c #585859",
"n  c #615F5D",
"m  c #5F605D",
"M  c #61615F",
"N  c #5D5D62",
"B  c #605D60",
"V  c #5F6165",
"C  c #636365",
"Z  c #646569",
"A  c #6B6B6C",
"S  c #686667",
"D  c #6F726F",
"F  c #6C6D72",
"G  c #716F73",
"H  c #6F7174",
"J  c #737373",
"K  c #787677",
"L  c #757579",
"P  c #7B7B7B",
"I  c #777879",
"U  c #817E7F",
"Y  c #7D807F",
"T  c #83817F",
"R  c #7C7D82",
"E  c #7E8086",
"W  c #838384",
"Q  c #888684",
"!  c #84858A",
"~  c #89878C",
"^  c #8B8B8C",
"/  c #888A8A",
"(  c #918E8F",
")  c #8D8D92",
"_  c #929295",
"`  c #949499",
"'  c #9B9B9C",
"]  c #989693",
"[  c #A19F9D",
"{  c #A1A19F",
"}  c #9C9CA1",
"|  c #A09DA0",
" . c #A4A3A4",
".. c #A5A5AA",
"X. c #A8A6AA",
"o. c #ACABAC",
"O. c #AAA8A7",
"+. c #B0B1AD",
"@. c #AEAEB2",
"#. c #B0AFB3",
"$. c #AEB1B0",
"%. c #B4B4B4",
"&. c #B6B4B9",
"*. c #B9B7BC",
"=. c #BBBBBD",
"-. c #B8B8B7",
";. c #C1C2BE",
":. c #BEBDC2",
">. c #C1BFC3",
",. c #C3C3C4",
"<. c #C6C5C9",
"1. c #C9C7CB",
"2. c #CCCCCD",
"3. c #C9C8C6",
"4. c #D1CECF",
"5. c #CFD1CE",
"6. c #D0D1CD",
"7. c #CDCDD1",
"8. c #D2CFD2",
"9. c #CFD0D2",
"0. c #D3D3D5",
"q. c #D8D6D5",
"w. c #D7D9D5",
"e. c #D9D9D7",
"r. c #D6D6D9",
"t. c #DAD7DC",
"y. c #D7D9DB",
"u. c #DCDCDC",
"i. c #E1DFDD",
"p. c #DEE3DE",
"a. c #E4E3DF",
"s. c #DDDDE1",
"d. c #E0DFE2",
"f. c #DFE2E2",
"g. c #E5E4E2",
"h. c #E9E6E4",
"j. c #E5E9E5",
"k. c #EAEAE6",
"l. c #E5E5E9",
"z. c #E8E7EA",
"x. c #E6EAEC",
"c. c #E9E9E9",
"v. c #ECEAE9",
"b. c #EBECE9",
"n. c #EEECE8",
"m. c #EFEDE9",
"M. c #EEEDEA",
"N. c #EBEBED",
"B. c #EEEEED",
"V. c #ECECEB",
"C. c #F0EDE9",
"Z. c #F1EFEE",
"A. c #F0EEEF",
"S. c #F1EEED",
"D. c #F0EFEC",
"F. c #EDF0ED",
"G. c #F3F1ED",
"H. c #F3F1EF",
"J. c #F1F0EC",
"K. c #F4F2EE",
"L. c #F2F1ED",
"P. c #EEEDF1",
"I. c #F1EFF2",
"U. c #EEF1F2",
"Y. c #F6F5F2",
"T. c #F6F6F5",
"R. c #F3F3F4",
"E. c #F9F9F7",
"W. c #F6F5F9",
"Q. c #F9F7FB",
"!. c #FBFBFD",
"~. c #F7F8F9",
/* pixels */
"C.k.h.g.k.k.k.k.k.k.C.C.C.C.S.G.J.G.G.G.G.G.G.G.J.C.C.C.m.m.m.m.B.F.B.B.m.b.B.b.m.B.B.b.J.S.S.S.S.S.S.S.S.S.S.S.S.S.S.S.J.J.J.J.k.k.k.k.k.k.k.k.m.m.m.m.m.S.J.Y.",
"C.k.h.h.k.k.k.k.k.k.k.k.k.k.C.C.C.C.m.m.G.G.G.G.Y.Y.Y.Y.Y.Y.Y.Y.T.T.T.T.B.c.k.b.m.b.c.k.v.m.m.B.S.S.S.J.J.J.J.J.J.J.R.S.C.m.m.m.m.m.m.m.k.k.k.k.k.k.k.k.v.m.S.J.",
"C.k.h.g.g.h.h.h.h.h.h.h.k.k.k.k.h.h.k.k.a.a.g.g.g.g.h.h.g.g.g.g.h.j.h.g.g.g.h.k.c.k.h.h.h.h.h.g.g.g.g.g.g.g.g.g.g.g.g.g.h.h.g.g.g.g.a.a.h.h.h.h.k.k.k.k.h.v.m.S.",
"C.k.h.g.a.a.a.a.a.a.g.g.h.h.h.h.a.a.g.g.g.g.g.g.a.a.a.a.a.a.a.a.g.g.g.g.e.u.a.g.g.h.j.j.g.g.g.g.g.g.g.g.g.g.g.g.g.g.g.g.a.a.a.g.g.h.h.h.g.g.g.h.g.g.g.g.h.h.v.m.",
"C.k.h.g.a.a.a.a.a.a.a.a.g.g.h.h.g.g.g.g.g.g.g.h.a.a.g.k.k.k.g.a.g.g.g.g.g.g.g.g.c.c.k.k.h.h.h.h.g.g.g.g.g.g.g.g.g.g.g.g.a.a.a.a.a.a.g.g.g.g.g.g.g.g.h.h.h.h.k.m.",
"C.k.h.g.a.a.a.a.a.a.a.a.g.g.h.h.g.g.g.g.g.g.g.a.a.g.k.k.b.k.g.a.g.g.g.g.g.g.g.g.g.g.h.h.h.h.h.h.g.g.g.g.g.g.g.g.g.g.g.g.a.a.a.a.a.a.g.g.g.g.g.g.g.g.g.h.h.h.k.m.",
"C.k.h.g.a.a.a.a.a.a.a.a.a.a.h.h.g.g.a.a.g.g.h.h.g.k.k.m.b.k.g.a.g.g.g.g.g.g.g.g.g.g.g.g.h.h.h.h.g.g.g.g.g.g.g.g.g.g.g.g.a.a.a.a.a.a.a.a.a.a.g.g.g.g.g.h.h.h.k.n.",
"C.k.h.g.a.a.a.a.a.a.a.a.a.a.h.h.a.g.a.a.g.g.h.h.k.k.m.J.b.k.g.a.g.g.g.g.g.g.g.g.g.g.g.g.g.g.h.h.g.g.g.g.g.g.g.g.g.g.g.g.a.a.a.a.a.a.a.a.a.a.g.g.g.g.g.h.g.h.k.n.",
"C.k.h.a.g.g.g.g.g.g.g.g.h.g.a.a.g.g.a.a.g.g.g.g.k.i.] Q 3.a.b.a.a.u.p.a.u.u.c.P.r.9.g.B.v.c.I.2.Q A O.q.g.k.h.g.g.g.g.g.a.a.a.a.a.a.g.g.a.a.a.a.a.a.a.a.h.h.k.m.",
"C.k.h.a.g.g.g.g.g.g.g.g.h.h.a.a.g.g.a.a.g.g.g.g.m.m.b X ; j o.u.e.p.e.e.e.e.f.=.l 6 C -.u.g.i.3.8   : h o.u.g.g.g.g.g.g.a.a.a.a.a.a.g.g.a.a.a.a.a.a.a.a.h.h.k.n.",
"C.k.h.a.g.g.g.g.g.g.g.g.g.g.a.a.a.a.a.a.g.g.a.g.k.T.] #     . b w.b.u.u.g.c.g.J       < ( g.0.e.O.e < : < [ h.h.g.g.g.g.a.a.a.a.a.g.a.a.a.a.a.a.a.a.a.a.a.h.k.n.",
"C.k.h.a.g.g.g.g.g.g.g.g.g.g.a.a.a.a.a.a.g.g.g.g.g.Y.[     o X ; u.E.h.h.h.u.g.A   + @ o P g.q.g.Y.%.1 X X T i.u.g.g.g.g.a.a.a.a.a.a.a.a.a.a.a.a.a.a.a.a.a.h.k.n.",
"G.k.h.a.a.a.a.a.g.g.g.g.g.g.g.g.g.g.g.g.g.g.g.g.h.Y. .    o X . e.!.R.h.g.h.P.J o       K c.u.g.c.g.x 4 i O.u.u.g.g.g.g.g.g.g.g.g.g.g.a.a.a.a.a.a.a.a.a.a.h.k.n.",
"G.k.h.a.a.a.a.a.g.g.g.g.g.g.g.g.g.g.g.g.g.g.g.g.g.Y.'     o o   u.B.R.h.h.z.P. .o     @ W u.u.v.B.h.-.^ +.g.a.u.g.g.g.g.g.g.g.g.g.g.g.a.a.a.a.a.a.a.a.a.a.h.k.n.",
"S.C.g.a.a.a.a.a.a.a.g.g.g.g.g.g.g.g.g.g.g.g.g.g.g.I.( o   @ @   _ !.u.g.N.N.P.r.r o o + K m.u.v.h.u.e.g.g.e.i.i.g.g.g.g.g.g.g.g.g.g.g.g.a.a.a.a.a.a.a.a.a.h.k.n.",
"S.C.g.a.a.a.a.a.a.a.g.g.g.g.g.g.g.g.g.g.g.g.g.g.g.S.Q o o @ @   : ' g.u.N.c.R.z.K   @ @ 7 4.v.d.c.c.0.u.c.g.u.i.g.g.g.g.g.g.g.g.g.g.g.g.a.a.a.a.a.a.a.a.a.h.k.n.",
"J.C.a.a.g.g.g.g.a.a.a.a.g.g.g.g.g.g.g.g.g.g.g.g.v.I.b o   @ @ @ o 2  .N.z.h.!.R.r.2 - O O C N.N.h._ %.T.B.h.g.f.g.g.g.g.g.g.g.g.g.g.g.g.a.a.g.g.h.h.h.h.g.k.k.m.",
"S.C.a.a.g.g.g.g.g.g.a.a.g.g.g.g.g.g.g.g.g.g.g.g.B.T.7       - ,     h r.R.d.z.B.z.! o o   -  .W.P + < o.g.h.h.g.g.g.g.g.g.g.g.g.g.g.g.g.g.g.g.g.h.h.h.h.g.k.k.m.",
"C.C.a.a.g.g.g.g.g.g.g.g.g.g.g.g.g.g.g.g.g.g.g.g.I.d.+       6 2   O + C g.g.u.z.g.0.: & - o e c + o + v g.h.h.h.h.g.g.g.g.g.g.g.g.g.g.g.g.a.a.g.g.g.h.g.g.k.k.m.",
"C.C.a.a.a.g.g.g.g.g.g.g.g.g.g.g.g.g.g.g.g.g.g.g.R.=.o   o o ` ~ o   @ &  .N.g.g.h.B.v &   + o   - - @ y u.g.c.c.h.g.g.g.g.g.g.g.a.a.g.g.a.a.a.a.g.g.g.g.g.k.k.m.",
"J.C.a.a.a.a.a.a.g.g.g.h.h.h.g.g.g.g.g.g.g.l.z.N.I.S     O   r.z.x o o o 6 z.N.N.h.u.W O o o @ + + + o h 4.g.U.R.u.u.c.h.a.a.g.g.g.g.g.g.g.g.a.a.g.g.h.g.g.h.k.m.",
"J.C.a.a.a.a.a.a.g.g.g.h.h.h.g.g.g.g.g.g.g.l.z.N.z.,     O O <.!.} 4   o o _ P.s.R.h.L o   @ & & + ; x g.!.r._ ' u.u.u.s.a.a.i.g.a.g.g.g.g.g.g.a.g.g.h.h.g.h.k.n.",
"J.C.a.a.g.g.g.g.g.g.g.g.h.h.g.g.g.g.g.g.g.l.z.N.*.O o o   , r.P.s.C O     y g.I.c.A +       O - - C 0.!.!.2.+   O.B.2.g.a.a.g.g.g.g.g.g.g.g.a.a.g.g.h.h.g.h.k.n.",
"J.C.a.a.g.g.g.g.g.g.g.g.g.h.g.g.g.g.g.g.g.g.z.N.L O   > o t 7.l.2.1.a   o 2 *.N.W @         o +   g 2.J.!.,..   y g.U.e.a.a.g.g.g.g.g.g.g.g.a.a.g.g.h.h.g.h.k.n.",
"J.C.a.a.g.g.g.g.h.h.g.h.g.g.g.g.g.g.g.g.z.g.N.N.s O   > 2 ` s.r.0.z.) &     X.r.< @   -       + o + ^ T.m./ o @   r 0.g.a.a.g.g.g.g.g.g.g.g.g.a.g.g.g.g.g.k.k.m.",
"J.C.a.a.g.g.g.g.h.h.g.g.g.g.g.g.g.g.g.g.d.z.N.d., o o & x &.) N Z X.r.g O 2  .7.  o @ , A 6   O % o - / =.x o   @   W U.a.a.g.g.g.g.g.g.g.g.g.g.g.g.g.g.g.k.k.m.",
"J.C.a.a.g.g.a.a.g.g.g.g.g.g.g.g.g.g.g.g.g.z.R.|   o o + 2 5 o * - O c 7.u.g.7.r.,   O < d.1.z   o @ X : y u   @ . . C U.f.f.g.g.g.g.g.g.g.g.g.g.g.g.g.g.g.k.k.m.",
"J.C.a.a.g.g.a.a.g.g.g.g.g.g.g.g.g.g.g.g.N.z.Q.z o O   & O o     o o < <.R.I.R.P.f     < 8.!.X.3   + X o + - o   .   Y h.f.f.g.g.g.g.g.g.g.g.g.g.g.g.g.g.g.k.k.b.",
"J.J.a.g.h.g.g.g.g.g.g.g.h.h.h.h.g.g.g.h.z.N.>.> O O O O     o   o O < -.N.N.N.N.2.f + e 2.N.0.h + o   #           = 2.g.f.f.g.g.g.g.g.g.g.g.g.g.g.g.g.g.g.j.k.b.",
"J.J.a.g.h.h.g.g.g.g.g.h.h.h.h.h.g.g.g.h.h.N.P   O O O O o O O       ! g.z.z.z.z.z.g.-.` <.t.g. .< o   +           H c.u.f.f.g.g.g.g.g.g.g.g.g.g.g.g.g.g.g.k.k.b.",
"J.J.a.g.h.g.g.g.h.h.h.h.h.h.h.h.h.g.g.h.P.r.7 O O O O O & O O > l :.z.g.g.g.g.g.g.h.g.r.d.d.g.u.S #             A u.u.e.f.f.g.g.g.g.g.g.a.a.g.g.g.g.g.g.g.k.k.m.",
"J.J.a.g.g.g.g.g.h.h.h.h.h.h.h.h.h.h.h.h.R.'   O O O O O >   O 0 0.P.R.h.s.s.s.d.g.u.g.d.g.z.z.N.^               -.0.c.f.u.f.g.g.g.g.g.g.a.a.g.g.g.g.g.g.g.k.k.m.",
"J.J.a.a.g.g.g.g.g.g.g.g.h.h.h.h.g.g.h.z.d.x     * o > b ,     B N.d.z.N.u.u.u.s.d.r.g.z.d.z.z.*.4               #.R.z.u.r.' J x v ' g.g.g.g.g.g.g.g.g.g.g.k.k.m.",
"J.J.a.a.g.g.g.g.g.g.g.g.h.h.h.h.g.h.h.z.&.+ + + o & ^ 8.,     B P.g.h.h.u.u.s.s.d.g.s.N.s.:.N < o o o o o       4 X.r.r.r._ ; X   v a.g.a.a.g.g.g.g.g.g.g.k.k.m.",
"J.J.a.a.g.h.g.g.g.g.g.g.h.h.h.h.g.g.h.c.G   +   < ` h.u.,     B W.h.h.s.u.s.u.u.u.z.g.=.a O   &             o     < :.P.0.%.: X . A u.h.a.a.a.g.g.g.g.g.g.k.k.b.",
"G.J.a.a.h.h.g.g.g.g.g.g.h.h.h.h.g.g.h.c.e   > , ~ Q.!.g.,     B P.g.z.u.s.s.s.u.u.h.N.I O o & 0 u u u u 2 -     @ @ r ' r.{ + o - -.k.a.a.a.g.a.g.g.g.g.g.k.k.b.",
"G.J.a.g.h.h.h.g.h.h.h.h.h.h.h.h.k.S.Y.2.,     b t.W.I.t.O   o A R.h.T.g.N.R.d.=.N x X.X.L A X.u.g.u.N.h.-.f @     @   - :       v c.g.h.g.g.a.a.a.g.g.g.k.k.k.m.",
"G.J.a.g.h.h.h.g.h.h.g.h.h.h.h.h.Y.a.J.U + + g g.R.d.P.2.> o O A h.T.R.s.g.g.' @     e z.r.0.r.0.h.r.u.r.N.&.4 o   @ o       @   -.T.k.b.g.g.a.a.a.a.g.g.k.k.k.m.",
"J.J.a.g.h.h.g.g.g.g.g.g.h.h.h.h.k.h.=.*   h d.!.!.P.N.)       4 a c P u.I.0.6       & P 2.d.s.7.,.J h u L -.R 4     @ +   o X ; g.R.B.j.g.g.a.a.a.a.j.k.k.k.k.m.",
"J.J.a.g.g.g.g.g.g.g.g.g.h.g.h.h.S.S.S   e u.N.d.&.A a O o o o       o P T.h.<   o 2 o & =.s.s.g.1.f       a &.` <   o - % o . r F.b.c.p.g.g.a.a.a.a.g.j.g.k.k.m.",
"J.J.a.g.g.h.g.h.g.g.g.g.h.g.S.v.S.2.  @ 1.g.Z O         o   o & - , o c R.u.-   o -   & =.d.l.r.r.o.+   , o h 1.+.g o   : ;   x N.z.g.g.g.g.g.g.g.g.g.g.g.k.b.m.",
"J.J.a.g.g.g.g.g.g.g.g.g.h.g.v.v.S.x o =.I.=.  o         o   o & - & o ) z.z.7   o & o O @.R.l.<.0.T._ 7 o O 4 <.r.,.v X     o { z.g.g.g.g.g.g.g.g.g.a.g.g.k.b.m.",
"G.J.a.g.g.h.h.h.g.g.h.h.h.h.h.m.,.; n T.N. .            o   o & & - A u.g.P.C o O o & o C 7.X.Z a W 1.'     K e.e.a.;.o.^ ^ =.u.g.a.g.g.g.g.g.g.g.g.g.g.g.k.b.m.",
"J.J.a.g.g.h.h.g.g.h.h.h.g.k.h.m.P e i.T.z.o.            o o o & c @.f.h.g.z.` o &   & o h X.a o + o @.W.t + -.!.a.B.a.a.k.5.w.a.a.g.g.g.g.g.g.g.g.g.a.a.g.k.b.m.",
"J.J.a.a.g.g.g.g.g.g.h.h.v.k.a.u.o.-.g.I.R.0.O > o       = o o 0 ,.g.x.9.s.u.,.2   o & o c &.- o   @ P u.@.@.e.B.c.g.g.a.a.a.a.a.g.g.g.a.g.g.g.g.g.g.g.g.g.k.b.m.",
"J.J.a.a.g.g.g.g.g.g.h.h.k.h.g.i.i.S.q.h.z.g.c o & 2 c _ a     t 7.z.x.0.d.s.0.F   o O o s W & O & - @.N.P.h.B.R.B.h.a.a.a.a.a.a.g.g.a.a.g.g.g.g.g.g.g.g.g.k.b.m.",
"J.J.a.a.h.h.g.g.g.g.g.g.g.g.g.g.a.i.g.g.z.N.c.r.s.f.l.l.Z     d s.x.l.r.g.g.l.>.2 O O o - , & o   f u.W.W.P.g.B.g.g.a.u.p.g.g.g.g.g.g.g.g.g.g.g.g.g.g.g.g.j.k.m.",
"G.J.a.g.h.g.g.g.g.g.g.g.g.g.g.g.g.g.v.v.t.I.B.P.R.f.s.f.F o o l x.x.l.y.l.s.g.N.C & O   o o &   7 %.R.c.N.u.o.o.4.g.a.u.a.g.g.g.g.g.g.g.g.g.g.g.g.g.g.g.g.j.b.m.",
"G.J.a.g.g.g.g.h.h.h.g.a.g.g.g.g.g.g.g.g.u.h.N.g.x.x.x.x.R   o F s.l.f.r.l.s.l.r.} O o   O     e =.g.g.h.c.,.+   k e.6.m.a.a.a.a.a.a.a.a.g.g.a.a.g.g.g.a.a.g.k.m.",
"G.J.a.g.g.g.h.h.h.h.g.a.g.g.g.g.g.g.g.g.g.c.y.g.x.x.x.x.!   o H l.P.l.l.g.g.z.0.` o   o &   O v r.g.N.B.g.O.      / w.a.a.a.a.a.a.a.a.a.g.g.a.a.g.g.g.a.a.g.k.m.",
"J.J.a.g.g.g.g.g.h.g.g.a.g.g.g.g.g.g.g.g.g.P.N.c.x.x.x.x.)   o R g.P.s.s.N.R.Q.u.N     & -     A r.g.N.z.B._ @     7 2.a.a.a.a.a.a.a.a.a.g.g.a.a.g.g.g.a.a.g.k.b.",
"J.J.a.g.g.g.g.g.h.g.g.a.g.g.g.g.g.g.g.g.=.' =.7.x.x.x.x._   o E s.y.` ! r.l.N.<.2   o O & &   s h.g.s.s.z.P     X   %.a.a.a.a.a.a.a.a.a.g.g.a.a.g.g.g.a.a.g.k.b.",
"J.J.a.g.g.g.g.g.g.g.g.g.g.g.g.g.k.B.b.B.f     t u.P.U.U.~     ! l...&   Z r.#.g     o o O , O > 0.u.g.g.7.J @       +.a.g.g.g.g.g.g.g.g.g.g.g.g.g.g.a.a.a.g.k.b.",
"J.J.a.g.h.g.h.h.g.g.g.g.g.g.g.g.a.g.B.c.- - = @ 7.N.x.U.!   o ` f._ & & N <.v O   & - o & - O O J R.u.z.@.2 <   . < ;.a.g.g.g.g.g.g.g.g.g.g.g.g.g.g.a.a.a.g.k.b.",
"G.J.a.g.g.g.h.h.g.g.g.g.g.g.g.g.h.B.J.,.@ & O   } W.x.~.R   o _ s.V & = ~ X., o 2 R %.x & O O o - ,.B.u.x @     + J w.j.g.g.g.g.a.a.a.a.g.g.g.g.g.g.g.a.a.g.k.b.",
"J.J.a.g.h.g.h.g.g.g.g.g.g.g.g.g.e.h.0.C @ - +   5 7.!.R.~     ! <.= & a 7.` o & ~ z.P.0.5 o o O   h d.2.&   @ @ P Y.j.j.a.g.g.g.g.a.a.a.a.a.a.a.g.g.g.a.a.g.k.b.",
"G.J.a.g.g.g.g.g.g.g.g.g.g.g.g.g.p.u.,.h o , @     a r.!.)     L R 2 N 0.l.g >  .d.d.d.d.@.O   o   @ u <       r 5.j.g.a.a.g.j.j.j.g.a.a.a.a.a.a.a.a.a.a.g.g.k.b.",
"G.J.a.g.g.g.g.g.g.g.g.g.g.g.g.g.u.g.r.P o + @     & >.W.E     R :.&.2.W.@.0 ` P.d.d.d.d.l.R o   @             $.j.g.p.p.p.g.j.b.b.j.a.a.a.a.a.a.a.a.a.a.g.g.k.b.",
"G.J.a.g.g.g.g.g.g.g.g.g.j.j.j.j.p.g.h.-.7 o     o o ..!.F o o ! P.s.0.0.F ) s.z.g.d.g.g.N.:.o O       o     P F.g.p.p.p.p.g.j.b.m.b.j.a.a.a.a.a.g.g.g.a.a.g.k.b.",
"J.J.a.g.g.g.g.g.g.g.g.g.j.j.j.j.j.g.c.u. .t @       @.U.N o   ! P.0.g.7.X.u.g.P.g.g.g.g.0.r.4   o       o h u.h.f.p.p.p.p.g.j.b.F.m.b.j.a.a.a.a.g.g.g.a.a.g.k.b.",
"J.J.a.g.g.g.g.g.g.g.g.g.j.g.j.j.h.h.k.c.g.,.C y f ! r.!.B     G R.g.W.s.r.r.s.s.I.u.N.N.l.1.&           g 7.c.z.g.f.p.p.p.j.w.P r $ 9 / k.k.k.g.g.g.g.g.a.g.k.b.",
"J.J.a.g.g.g.g.g.g.g.g.g.j.g.j.j.h.h.k.c.z.z.7.<.T.!.!.R.l   o t R.!.W.g.r.u.d.g.z.z.P.g.z.C o           6 @.u.g.g.f.p.p.e.g.P $ .     k k.k.k.g.g.g.g.g.a.g.k.b.",
"G.J.a.g.g.g.g.g.g.g.g.g.g.g.j.j.h.h.k.c.c.P.c.h.N.R.N.u.q     & u } 0.z.s.d.z.N.N.z.N.s.F     o         o e y.N.g.f.p.p.g.=.; + . .   k k.j.g.g.g.g.g.g.a.g.k.b.",
"G.J.a.g.g.g.g.g.g.g.g.g.g.g.j.j.h.h.k.k.c.g.z.N.!.h.@.L 2 O   -   > c @.d.l.z.P.z.z.7.l o O o &             R N.g.f.f.p.F.I   + + . $ k k.j.g.g.g.g.g.g.a.g.k.b.",
"J.J.a.g.g.g.g.g.g.g.g.g.g.g.g.g.j.k.Y.Y.E.R.v.=.v 7 o           o + 6 ! 0.B.N.T.0.P ,     o       o   O o   + X.R.c.c.U.e.9 . X + X o m g.g.g.g.g.g.g.g.g.j.k.b.",
"J.J.a.g.g.g.g.g.g.g.g.g.g.g.g.g.k.b.F.m.<.W 7 .   o   @         o + a O.r.s.r._ 6     o o     l ` F     & o   - / -.r.9.D o $ X o +   v g.g.g.g.g.g.g.g.g.j.k.b.",
"J.J.a.g.g.g.g.g.g.g.g.g.g.g.g.g.B.u.^ e o     o   O   @         o - ' g.<.A 4   o + @ o   2 @.z.P.r.l     & o   . & +   .   +   . + . P g.g.a.a.g.g.g.g.g.j.k.b.",
"J.J.a.g.g.g.g.g.g.g.g.g.g.g.g.g.b.,.+   o o @ + @   + o         h X.7.u.2.g @         - F t.W.s.N.l.,.h   o &   o . o @       X X . X  .g.g.a.a.g.g.g.g.g.j.k.b.",
"J.J.a.g.g.g.g.g.g.g.g.g.g.g.g.g.c.O.  o @ @ @ + - = +     4 P 0.g.z.N.z.g.>.^ v h v ) 7.g.g.g.g.z.l.g.r.c o o O O o             .   y 0.a.a.a.a.g.g.g.g.g.g.k.b.",
"J.J.a.g.g.g.g.g.g.g.g.g.g.g.g.g.k.,.%   o o @ %   @   : P 0.B.g.N.N.z.g.g.c.s.u.7.s.g.h.g.g.d.d.d.d.g.l.s.F o o o       o o o o . @ P g.a.a.a.a.g.g.g.g.g.g.k.b.",
"J.J.a.g.g.g.g.g.g.g.g.g.g.g.h.g.c.e.k     @ X     + J w.c.c.h.g.z.h.g.g.u.g.u.g.r.e.u.c.g.l.l.l.s.s.l.z.s.s.=.h o     X o . . . o - o.p.a.a.a.a.j.j.g.g.g.g.k.b.",
"J.J.a.g.g.g.g.g.g.g.g.g.g.g.h.h.c.k.=.p     % 4 J =.j.p.h.g.g.y.g.g.g.g.e.c.f.g.u.g.u.g.g.g.g.g.g.g.g.g.z.s.h.g. .g -           ; M u.e.a.a.a.a.j.g.g.g.g.g.k.k.",
"L.m.j.a.g.g.g.g.g.g.g.g.g.g.g.h.m.B.J.g.2.<.0.b.j.j.j.g.j.g.j.j.h.h.k.h.h.h.g.g.g.g.g.g.g.g.g.g.g.g.g.g.g.g.g.g.g.e.2.,.O.' ' X.0.u.c.h.a.a.p.a.a.a.a.a.g.g.k.k.",
"L.m.j.a.g.g.g.g.g.g.g.g.g.h.h.k.j.k.k.b.F.B.c.g.g.g.j.g.j.g.j.j.h.h.k.h.h.h.g.g.g.g.a.a.a.a.a.a.g.a.g.g.g.g.g.g.h.c.c.B.R.T.T.R.c.h.g.g.g.g.a.p.a.a.a.a.a.g.g.k.",
"L.m.j.a.g.g.g.g.g.g.g.g.g.g.g.g.h.h.j.j.g.b.B.g.g.g.g.g.g.g.j.j.j.j.j.j.h.g.g.g.g.g.a.a.g.g.g.g.a.a.g.a.g.g.g.g.b.c.h.g.u.h.h.u.g.g.g.g.g.g.g.g.g.g.a.a.g.j.k.b.",
"L.m.j.a.g.g.g.g.g.g.g.g.g.g.g.g.g.g.g.g.h.h.j.g.g.g.g.g.g.g.j.j.j.j.j.j.h.g.g.g.g.g.a.a.g.g.g.g.a.a.a.g.g.g.g.g.j.j.h.h.a.g.g.g.g.h.g.h.g.g.g.g.g.g.g.g.j.k.b.m.",
"Y.m.k.g.g.g.g.j.j.j.g.g.h.h.h.h.h.h.h.h.h.h.j.g.g.g.a.a.g.g.j.j.j.j.j.j.j.h.j.j.j.g.a.a.g.g.g.g.g.g.k.k.k.k.k.j.j.h.k.k.h.h.h.k.c.c.h.h.c.z.g.a.h.h.g.g.g.k.b.m.",
"L.m.b.j.k.k.k.k.k.k.k.k.k.k.k.k.k.k.k.k.c.c.c.c.b.b.b.b.k.j.j.j.j.j.j.j.h.h.j.h.k.k.h.h.g.g.g.g.k.k.b.m.m.m.m.b.b.b.b.c.c.k.k.c.c.c.c.c.c.c.h.h.h.k.k.k.k.k.m.m.",
"J.m.b.k.m.m.m.m.m.m.m.m.m.m.m.m.b.b.m.m.N.N.F.F.F.F.F.F.F.b.b.b.b.b.b.b.k.k.k.k.b.b.b.b.k.k.k.k.b.b.b.m.m.b.B.B.B.B.B.B.B.m.m.B.B.B.c.c.h.h.k.b.b.B.m.m.m.m.J.L.",
"m.b.m.m.m.m.m.m.F.F.F.F.B.B.B.B.B.B.B.B.F.F.F.b.b.b.F.F.F.F.F.F.F.F.F.F.k.k.h.h.m.m.m.m.m.m.b.b.b.b.m.m.m.m.b.b.J.R.J.J.J.B.B.B.B.B.c.c.g.h.c.B.F.F.F.F.J.J.L.Y."
};
