/* XPM */
static char *aa6f3b6ea0484257d05b86b56889b8d39BQrGX0bueMXcf8Q[] = {
/* columns rows colors chars-per-pixel */
"80 80 256 2 ",
"   c #355C77",
".  c #3B6379",
"X  c #476679",
"o  c #2D5E83",
"O  c #2A658B",
"+  c #34658A",
"@  c #346B8D",
"#  c #3C6B8D",
"$  c #3A6685",
"%  c #2A6B96",
"&  c #346D93",
"*  c #3A6C93",
"=  c #3C749B",
"-  c #377499",
";  c #367195",
":  c #3B79A7",
">  c #3B7DB4",
",  c #2F72A4",
"<  c #436D8B",
"1  c #456A85",
"2  c #46718D",
"3  c #4B7389",
"4  c #577388",
"5  c #466D93",
"6  c #477696",
"7  c #537393",
"8  c #587997",
"9  c #536E8E",
"0  c #647D9B",
"q  c #61778A",
"w  c #447BA6",
"e  c #437FB2",
"r  c #557CA1",
"t  c #677FA0",
"y  c #3E82B9",
"u  c #3C83AA",
"i  c #58869E",
"p  c #64849C",
"a  c #6A8699",
"s  c #73889B",
"d  c #4883AB",
"f  c #5887A9",
"g  c #4C8ABB",
"h  c #4787B7",
"j  c #568CB8",
"k  c #4A93BC",
"l  c #5B93BD",
"z  c #5894B7",
"x  c #5790AF",
"c  c #668AA7",
"v  c #738DA2",
"b  c #6993AA",
"n  c #7392A5",
"m  c #7B95AA",
"M  c #6394BC",
"N  c #6797B8",
"B  c #779AB6",
"V  c #698EB1",
"C  c #7BA6BF",
"Z  c #488AC3",
"A  c #4B95C6",
"S  c #5293CC",
"D  c #5997C7",
"F  c #569AD2",
"G  c #5C9CD4",
"H  c #5297D1",
"J  c #4F93C8",
"K  c #639CCB",
"L  c #6999C6",
"P  c #669CD3",
"I  c #729AC9",
"U  c #5AA3C9",
"Y  c #5CA3DC",
"T  c #57A5D4",
"R  c #69A4C9",
"E  c #74A4C4",
"W  c #7CABCC",
"Q  c #78A5C8",
"!  c #6AA4D4",
"~  c #63A5DD",
"^  c #6CABDC",
"/  c #67A8D5",
"(  c #73ABD4",
")  c #7CACD3",
"_  c #73ACDB",
"`  c #7AADDA",
"'  c #72A4D4",
"]  c #69B3DB",
"[  c #74B4DD",
"{  c #7CB3DC",
"}  c #79B6D9",
"|  c #7BB1CF",
" . c #5AA8E4",
".. c #6BACE4",
"X. c #65A8E2",
"o. c #78ADE3",
"O. c #6DB4E5",
"+. c #74B3E4",
"@. c #7BB2E3",
"#. c #7BBBEC",
"$. c #77B7E8",
"%. c #6BB4F2",
"&. c #7DC2E8",
"*. c #8299AB",
"=. c #849EB2",
"-. c #8DA5BA",
";. c #89A5B8",
":. c #93ACBC",
">. c #95A9B9",
",. c #90AFB9",
"<. c #A1B5BC",
"1. c #86ABC9",
"2. c #94ACC7",
"3. c #8CB3CC",
"4. c #85B2CB",
"5. c #9CB4C5",
"6. c #9AB6CB",
"7. c #9DB9CB",
"8. c #93B4CA",
"9. c #83ADD4",
"0. c #84ADDB",
"q. c #8AAED5",
"w. c #84B2D4",
"e. c #8BB4D4",
"r. c #83B3DC",
"t. c #8BB4DC",
"y. c #85BCDD",
"u. c #8BBADB",
"i. c #8CB9D5",
"p. c #93B4D4",
"a. c #9BBBD4",
"s. c #92B5DC",
"d. c #93BBDB",
"f. c #9CBBDB",
"g. c #97B8D6",
"h. c #93ADD6",
"j. c #A4BCCC",
"k. c #A5BAC9",
"l. c #A4BDD4",
"z. c #A7BCD6",
"x. c #84B4E3",
"c. c #8BB4E3",
"v. c #84BBE3",
"b. c #8BBAE2",
"n. c #83BAEB",
"m. c #8BBCE9",
"M. c #85B3EA",
"N. c #93BCE3",
"B. c #96BAE6",
"V. c #87BBF1",
"C. c #81ADE3",
"Z. c #A3BEE2",
"A. c #93C2DC",
"S. c #9BC2DC",
"D. c #9BC3D6",
"F. c #8FC2DE",
"G. c #A9C2CF",
"H. c #A4C2D3",
"J. c #ABC3D3",
"K. c #A2C4DB",
"L. c #AECADC",
"P. c #ABC6D9",
"I. c #B4CBDB",
"U. c #B9CDDB",
"Y. c #B4C8D7",
"T. c #B9D3DC",
"R. c #B1C3CF",
"E. c #88C4E9",
"W. c #99C7E7",
"Q. c #9BCBF4",
"!. c #92CDF1",
"~. c #A4C5E2",
"^. c #A7CAE7",
"/. c #B4CCE1",
"(. c #B9CEE2",
"). c #B7CBE5",
"_. c #ABD3E9",
"`. c #BCD4E4",
"'. c #B4D5EB",
"]. c #B9D8E9",
"[. c #A8D8F7",
"{. c #B7DAF6",
"}. c #A8CDF0",
"|. c #ABE5FE",
" X c #BBE4FD",
".X c #B9E7FA",
"XX c #BAF1FF",
"oX c #C8D6DC",
"OX c #C1CDDD",
"+X c #C3D5E4",
"@X c #C4DBEB",
"#X c #CADDEB",
"$X c #C7DAE5",
"%X c #C3DDF2",
"&X c #C8DAF5",
"*X c #CBD9EA",
"=X c #CCE2ED",
"-X c #C2E2EC",
";X c #D3E4ED",
":X c #D9E9EC",
">X c #C3E3F5",
",X c #CBE3F4",
"<X c #C4E5FC",
"1X c #C3EBFD",
"2X c #CDECFD",
"3X c #CBE6F9",
"4X c #D4E5F3",
"5X c #D5EAF4",
"6X c #DBEBF4",
"7X c #D4ECFD",
"8X c #DAEDFC",
"9X c #D4E6F9",
"0X c #CDF3FE",
"qX c #C9F7FE",
"wX c #D5F2F5",
"eX c #DDF4F5",
"rX c #D4F4FE",
"tX c #DCF4FE",
"yX c #D5FAFF",
"uX c #DCFBFE",
"iX c #DCFCF5",
"pX c #DCF3EE",
"aX c #E6EEED",
"sX c #ECF4EC",
"dX c #EBF9ED",
"fX c #F4F4EE",
"gX c #FCF5EC",
"hX c #F4FAEE",
"jX c #FAF9ED",
"kX c #FAF6E6",
"lX c #E2EDF3",
"zX c #E5ECF9",
"xX c #F2EFF5",
"cX c #E4F3F5",
"vX c #ECF4F5",
"bX c #E5FBF5",
"nX c #EDFAF5",
"mX c #E4F5FD",
"MX c #ECF5FB",
"NX c #E4FBFE",
"BX c #EBFBFD",
"VX c #F4F4F4",
"CX c #FAF5F5",
"ZX c #F3F9F5",
"AX c #FCFBF5",
"SX c #F7F4F9",
"DX c #F3F6FA",
"FX c #FBF6F9",
"GX c #F7FCFD",
"HX c #F3FBFC",
"JX c #FBF8FB",
"KX c #F8F8F8",
"LX c #FCFAFD",
"PX c #FAFFFF",
"IX c #FFFEFF",
"UX c #FBFAFC",
/* pixels */
"KXKXKXKXKXKXKXKXKXKXKXKXKXKXFXKXAXjXjXjXAXAXAXjXjXjXjXjXAXAXAXAXAXJXJXGXUXBXBXeXHXDXIXGXGXGXGXGXUXUXUXUXUXUXUXUXUXUXUXUXUXUXUXIXGXUXUXUXUXUXUXUXUXUXUXUXIXIXIXIX",
"KXKXKXKXKXKXKXKXKXKXKXKXKXKXKXCXjXjXjXjXjXAXAXAXjXjXjXjXAXAXAXKXAXAXFXDXUXNXBXBXHXMXMXMXHXHXHXHXHXHXGXGXGXGXGXGXGXGXGXGXGXGXGXGXJXJXJXJXUXUXUXUXJXJXJXJXIXIXIXIX",
"KXKXKXKXVXVXVXVXVXVXVXVXVXVXVXVXfXfXjXjXjXCXCXCXCXfXfXfXCXCXCXCXCXCXDXDXmX$X=X,XOXU.Y.$XMXvXnXVXZXVXZXZXZXZXZXZXZXZXZXZXHXZXZXZXDXFXFXFXJXJXJXJXFXFXFXFXUXUXUXUX",
"KXKXKXKXVXVXVXVXVXVXfXfXfXfXVXfXfXfXfXfXCXCXCXfXVXfXZXZXCXVXVXVXVXKXVXmX$Xk.2.2.2.2.:.OXmXvXvXvXZXZXZXZXZXZXZXZXZXZXZXZXZXZXZXVXDXSXSXSXSXSXSXSXDXDXSXSXKXKXKXFX",
"KXUXVXKXVXVXVXVXVXVXVXVXVXVXVXfXVXVXVXVXVXVXVXVXVXVXVXVXVXVXVXKXVXZXvXmX9Xl.l.g.p.6.l.8XmXvXvXsXfXfXfXfXCXCXfXfXCXCXCXfXCXCXCXCXVXVXVXVXVXVXSXVXVXVXSXSXUXUXFXFX",
"KXUXVXKXVXVXVXVXVXVXVXVXVXVXVXVXVXVXVXVXVXVXVXVXVXxXVXVXVXDXDXVXZXZXvXmX2Xf.B.s.s.g.l.7XmXMXvXfXfXfXfXfXCXCXCXCXCXCXCXfXCXCXCXCXVXSXVXVXVXVXSXVXVXVXSXVXLXLXFXFX",
"KXUXVXKXVXVXVXVXVXVXVXVXVXVXVXVXVXVXVXVXVXVXVXxXxXxXVXxXDXDXDXVXZXvXMXNX2Xf.W.c.c.s.f.7XmXMXvXfXfXfXfXfXfXfXfXfXfXfXfXfXfXfXfXfXVXSXSXSXVXVXVXVXVXVXVXVXLXLXJXFX",
"KXUXVXKXVXVXVXVXVXVXVXVXVXVXVXVXVXVXVXVXVXVXVXVXVXvXvXMXMXMXDXMXvXvXmXtX2Xf.W.b.c.c.B.7XmXmXvXvXvXvXvXvXZXZXfXfXfXCXfXfXfXfXfXCXVXSXSXSXSXVXVXVXVXVXVXVXLXLXFXFX",
"IXKXKXVXVXVXVXVXVXVXVXVXVXVXVXVXVXVXVXVXVXVXfXVXvXvXHXlXzX6X8XmXZXnXbXtX>Xp.b.0.c.c.B.7XNXNXeXpXeXNX5X=X:XvXfXfXCXKXCXKXKXKXKXKXVXVXVXVXDXDXKXKXSXSXSXSXUXUXUXUX",
"KXKXKXVXVXVXVXVXVXVXVXVXfXfXfXfXVXVXVXVXfXVXfXsXvXvXmX4Xz.j.).8XbXnXeXtX Xi.u.r.M.c.B.<XrXtXtXwX0XD.7.j.U.lXnXsXCXCXCXCXCXCXCXKXVXVXVXVXDXDXVXKXDXSXSXSXUXUXUXUX",
"KXKXVXVXVXVXVXVXVXVXVXVXVXVXVXVXZXvXvXvXvXvXvXvXMXBXmX+Xl.2.h.).5XeXtXrX Xu.b.@.M.C.0.{.yXuXuX3XS.i.d.a.a.,XBXvXDXDXDXDXDXDXDXDXVXVXVXVXDXVXVXKXDXDXSXSXLXLXUXUX",
"KXKXVXVXVXVXVXVXVXVXVXVXVXVXVXVXvXvXvXvXvXvXvXvXHXHXzX).z.f.s.s.'.2X0XqX Xx.n.@.@.o.` [.1X0X XS.w.b.r.N.g.].eXbXBXDXDXDXDXDXDXDXVXVXVXVXDXVXVXKXDXDXSXSXFXFXUXUX",
"KXKXVXVXVXVXVXVXVXVXVXVXVXVXVXVXGXHXHXHXGXvXMXMXGXzX*Xz.Z.B.c.c.9.A.}.[.Q.E.#.$.o.o.o.` !.W.d.u.m.m.m.N.d.>XuXBXBXBXBXmXmXmXBXmXvXVXVXVXVXVXVXKXFXFXFXFXUXUXUXUX",
"FXKXVXVXVXVXVXVXVXVXVXVXVXVXVXvXnXMXcX:XcXmXBXcXMXlX$XL.~.Q.V.x.` } [ @.+.+.+.......X.^ _ ` r.x.n.n.M.c.d.<XuXeXNXmX8X#X`.+XrXmXvXVXVXVXVXVXVXKXFXFXFXFXUXUXUXUX",
"JXUXVXVXVXVXVXVXVXVXVXVXVXVXVXvXMXlXOX<.k.OX6XBXvXvX6X,X~.N.m.$.$.^ ^ ..X.X.X.X.X.X.X.^ ~ ! o.n.n.M.x.t.^.rXNXeX7X].l.5.j.Y.7XmXMXVXVXVXVXVXVXKXFXFXFXFXUXUXUXUX",
"JXUXVXVXVXVXVXVXfXfXVXVXVXVXVXvXGXbX+X:.5.:.5.+XzXDXBXmXuX{.b.` @.^ / ..~  . .Y Y Y X.~ ~ / _ ` C.0.q.3.7XtXcXeX].7.8./.z.I.rXBXmXvXvXVXVXVXVXVXKXKXKXKXUXUXUXUX",
"JXUXxXVXVXVXVXVXsXfXKXKXVXVXVXVXHXBX5X6.a.3.1.j.zXDXDXvXmXNX2XS.E L ( ! F F H H H H F F G K ( { u.p.P.;XlXvXlXNXL.1.p.^.l.`.eXBXMXMXMXnXnXnXnXZXCXCXKXKXAXUXUXUX",
"JXUXxXVXVXVXVXVXsXZXKXDXDXDXDXvXBXNX3X3.A.w.1.2.8XMXSXVXUXGXNX0XW.N l l g Z Z Z Z Z J D l M Q [.1X>X6XMXvXZXcX5X6.3.p.f.l.`.eXbXbXNXbXMXMXMXBXnXZXKXKXKXFXAXUXUX",
"JXLXxXVXVXvXvXvXlXlXlXMXvXvXvXMXbXeX>X4.F.w.9.3.9XmXDXKXKXGXBXtXrXW.W M d h h y > > g j j E [.yXuXNXmXDXDXGXBXU.1.e.q.p.f.`.eXbXbXNXNXNXNXNXNXBXMXDXDXDXDXGXUXUX",
"JXLXVXVXvXvXvXMX+Xk.k.#XmXmXmXNXiXwX.X4.y.{ w.e.,XmXDXIXVXHXBXtXtXuX{.b w d y y , > h z Q  XuXrXtXmXmXvXGXHXmXL.1.r.0.B.f.].tXNXNXNXNXuX%X%X%X%XmXBXHXDXDXFXAXUX",
"GXGXVXDXvXMXBXeX/.l.6.P.].rXuXrXwX0X.X| { { ` w.,XNXvXKXVXDXMXBXmXNX2XD.6 : h , > : j Q.qXuXNXNXBXBXDXDXGXBXmXa.W ) 0.t.^.<XuXrXuXyX2X'.~.S.f.f.&X8XmXmXHXGXAXAX",
"GXGXvXDXvXMXcX=XP.f.p.f.d.^. X2XrXqX|.( _ _ _ W ].NXvXZXKXDXMXMXvXMXtX<XW w % % : : x }.rXuXbXBXBXMXDXDXGXBX3XB E ' ` 0.t.{.yXyXyX1X}.d.d.N.N.d.'.,XtXmXHXGXAXAX",
"GXGXvXMXvXcX:XT.D.d.u.u.N.t.N.}.1XqXXXE./ / ! E ^.NXMXvXVXDXDXDXZXGXNXrXXXz % % % : f  XrXNXnXZXHXDXDXDXHXBX3Xc L K P ' r.[.0X0X Xm.r.m.b.b.u.u.f.'.7XmXBXGXAXAX",
"GXGXvXMXBXcX;XY.a.d.u.t.r.x.x.v.W.[.|.E.G G G L S.tXBXvXVXDXDXDXCXAXGXuXyXN O O % = V 2XtXnXhXhXKXKXKXDXMXHXrXV l D K P ' E.[.Q.' @.V.m.t.t.e.e.1.L.3XmXBXGXUXUX",
"GXGXvXBXBX8X#XU.z.a.p.s.x.@.+.+.+.[ ^ ^ F S S j 3.rXNXmXMXDXZXKXCXKXHXBXtXc + o + * V 7XBXZXjXkXjXjXZXHXGXNXNXw.j g S S X.....O.O.+.#.m.u.e.8.6.U.#XeXmXDXDXGXUX",
"GXGXMXMXmX8X4X#X#XP.a.d.v.@.+.O.....~ ~ S J Z g q.rXNXmXBXMXnXZXCXKXHXBXtXc $ $ + < B rXBXZXjXkXjXjXZXMXmXNXuXA.d g J S  . .%.%.%.$.$.v.t.a.J.+XeXNXBXHXDXDXJXUX",
"KXGXVXDXmXcXmX8XmX8X>X^.u.x.+.....~ Y G J Z Z h q.rXNXtXNXBXMXnXZXZXBXBXtXv < # # 2 B tXBXZXjXjXjXZXZXBXBXNX0Xw.w h g Z Y  . .%.%.$.#.m.t.^.7XBXBXBXMXMXDXJXLXLX",
"KXKXVXDXMXcXmXmXmXNXtX2XA.r.{ +.~ ~ G F Z Z h e 0.rXuXtXNXNXBXnXZXHXBXNXrXn 5 5 < 7 B tXBXZXhXhXZXZXMXBXuXrXA.6 w d h g F T  . .Y O.E.Q. XtXBXcXBXMXvXDXDXJXLXLX",
"AXAXVXVXVXDXMXMXMXmXtXrX'.W.E.E.~ G F S Z h > > w Q {.rXtXNXNXBXHXHXBXmXz.7 7 5 8 7 m rXBXBXZXZXvXvXmXNX2X3.6 # = : d h k H T T O.!.|.yXyXNXnXnXvXvXVXVXKXJXUXLX",
"AXAXfXCXVXVXMXvXvXvXcXrX<X X[.E.~ G F S h > > > 6 5 8 ;.rXNXuXbXBXBXNXmXj.0 7 9 8 8 ;.rXBXBXBXZXMXBXNXP.c 1 $ @ ; - u u h A H T &.|.XXqXuXbXdXdXZXZXZXCXAXJXJXJX",
"gXAXfXCXVXVXDXDXZXvXcXtX0X.XW.R / G F S h > > > w 5 5 < p L.tXNXBXBXNXmX9X2.c 7 p p 5.tXBXBXBXBXBXeX5.p 3 $ * @ @ ; - u y k A U / !..X0XtXcXsXsXfXfXfXCXAXJXJXJX",
"AXAXfXCXVXvXvXvXnXmXmXrX'.A.W L / G F S h e w w 6 * 5 6 1 3 m I.eXNXNXmX8Xz.m t a a H.tXNXBXBXBX;X*.4 X $ $ + & & @ ; - h h A A U | F._.yXtXeXcXvXvXZXKXAXUXJXJX",
"GXGXvXMXMXcXMXmX7X].K.g.w.W Q ! P P L j M L f $ + * $ $ 2 7 8 p a <.T.rX7X/.-.v m ;.I.NXNXNX7Xk.a X X 1 $ + @ & o 6 N f = d g k D R ( { w.W.1XuXNXmXmXMXGXUXUXUX",
"HXHXMXMXMXcXvX5X^.d.3.w.u.r.` ( ' I L q.{.2X%Xa.2 < 2 2 $ 6 f b 4 4 ,.T.%XL.:.*.m -.I.rXtX@X:.4 4 X 1 1 < + O + f }.2X XQ f j D R R ( { { u.A._.`.#XmXBXHXUXUXUX",
"HXHXMXMXMXMXcX$XK.d.t.b.u.w.` ) N Q {.tXNXNXtXrX{.b 1   < 3 8 p a s =.T.`.L.j.5.-.5.Y.@XI.-.s s a 4 4 3 1   $ c >XuXrXyXyX{.E N N R ( r.b.u.i.D.j.U.;XcXGXUXAXUX",
"HXHXMXMXMXcXlXT.K.d.e.u.w.9.Q E f.2XNXNXmXBXHXBXrX2XJ.n X 3 7 p v =.:.j.Y.I.Y.Y.j.H.J.H.5.-.*.v a q 4 3 p -.].tXNXNXNXNXuXrXyX_.C E ) 9.r.u.A.K.#X;X6XcXHXAXAXAX",
"HXHXMXMXMXvXlX#Xa.i.3.1.1.p.{.uXuXNXNXBXMXMXZXMXHXBXcX,X(.m 3 a ;.*.:.5.j.I.`.`.I.Y.P.J.>.=.*.n 4 X a U.NXBXmXBXBXMXBXBXNXNXuXuX0X{.g.q.s.q.g._.mXMXvXvXKXAXAXAX",
"HXHXMXMXMXvXcX;X].a.1.7.>X7XNXtXNXBXMXMXZXZXKXKXZXZXHXBXNXrXH.a n >.:.5.J./.`.`.I.I.L.P.k.>.*.s s >.$XBXMXvXVXVXKXVXHXMXBXBXNXNXtXtX2X^.8.p.^.3XmXvXvXVXCXAXAXAX",
"HXHXMXMXMXvXvXcX7X7X9X8XmXBXHXBXBXnXnXVXKXDXFXKXAXAXHXHXBXtXuXL.=.5.5.j.P.`.@X].`./.I.Y.I.I.I.I.T.4XmXvXVXCXCXgXCXKXDXDXMXBXBXBXBXcXeX8X3X2XrXNXMXvXZXZXCXAXAXAX",
"HXHXMXMXvXvXvXmXmXrX7X8XmXMXvXvXnXHXDXVXDXFXJXAXAXAXKXGXNXNXrXrXJ.5.j.j.L.`.@X@X`.`./.I.Y.I.`.+X;XmXHXGXKXCXgXgXCXKXKXDXDXBXBXBXnXnXBXNX5XrXyXiXvXvXZXfXCXAXAXAX",
"HXHXMXBXMXvXvXmXwXrXrXrXuXNXMXvXMXMXDXDXSXCXFXCXAXAXKXHXcXBXuXtXJ.j.j.J.I.@X,X#X`.`.U.I.I.U.`.$X5XmXHXDXJXSXCXCXCXKXCXKXZXnXnXnXdXnXbXeXrXrXNXeXnXvXZXZXCXAXAXAX",
"HXHXMXBXvXvXvXcXuX>XD._.0XrXeXBXmXmXMXDXDXVXCXCXAXKXHXBXHXBXNX-Xj.7.j.j.Y.`.@X@X`.`.U.I.Y.J.k.k.OX;XzXDXDXJXFXSXSXKXKXZXnXnXnXbXnXBXNX7X%X%X2XwXbXvXvXZXKXAXAXAX",
"HXHXMXBXcXcXcXmXrX^.1.i._.0XuXNXNXNXMXMXDXZXKXKXZXHXHXBXBX,X,.;.,.5.7.7.z.I.`.`.`.`.(.I.j.5.>.=.s >.+XzXMXDXDXDXDXDXMXMXMXbXNXNXuXtX].a.p.f._.rXBXnXZXZXKXAXAXAX",
"HXHXMXBXcXcXvXmX>Xi.u.w.w.W. XyXuXNXNXbXMXvXVXvXHXBXBXtX,.a p m =.:.5.5.j.Y.(.I.`.`.(.I.k.:.*.s 4 q s -.4XmXBXBXBXBXBXNXNXuXuXuX>X3.C q.s.s.3.'.BXnXZXZXZXAXAXAX",
"GXGXMXvXcXvXHX5XK.d.y.r.r.) Q 4._.2XuXNXBXmXcXBXNXtXJ.a 4 8 p p n =.>.5.J.I.Y.Y.Y.Y.I.I.z.2.*.a 4 4 4 4 0 ;.z.,XNXwXwX]./.^.S.S.E Q 9.q.t.q.1.K.BXnXVXZXZXAXAXAX",
"GXGXMXDXBXBXvX#X6.i.u.b.v.{ Q B B 1.'.7XNXNXNXNX].n 3 1 3 8 8 c n =.5.`.`.#X`.J.5.J.(.@X(.2.m s 4 4 7 9 1 7 7 b ].wX0X;.i f N M Q ( ` ` x.9.E D.BXZXZXVXZXAXAXAX",
"GXGXMXDXHXHXvX#X:.1.q.w.r.r.) W I E V p.2X7X).;.3 . $ 2 2 6 r f n 5.@XNX9X@XJ.:.-.j.@X9X,X5.s 4 0 8 7 5 # $ $ < ,.T.'.c i x L R / ( [ } { w.4./.BXHXZXZXZXAXAXAX",
"GXGXMXDXvXvXBX:X+X`._.^.N.t.9.9.Q L N f V c 8 1 $ 6 # # < 6 8 8 2.=XtXrX9XJ.;.*.*.5.(.,X8X(.:.m t 8 7 < 5 + 6 @ 3 i b 6 f j D D R ( } { 9.i.K.7XBXHXZXZXKXAXAXAX",
"GXGXMXDXvXMXMXMXmXmXtXrX{.W.q.W L l x f 6 6 6 ; ; - = $ 2 . . a rXNXNXrX`.m *.m m =.-.Y.4XBXNX4X7.8 1   # @ & & & @ = w j j K R ( ) W.{.&X3X8XzXDXDXZXKXKXAXAXAX",
"GXGXMXDXvXvXMXMXvXMXcXtXrX'.d.Q R M z x d 6 = - - - = # $ X s Y.eXNXNX8X@Xm m v a a s 5.5XmXmX6XBXY.n 3 $ + = O - & : d j l K R v.W.{.rXNXmXMXDXDXVXZXKXKXAXAXAX",
"GXGXMXDXvXvXMXMXvXcXmXrXrX{.d.Q R R l x d d 6 = = = 6 2 B L.tX;XeXNXNXtX,Xm v 8 7 0 m #XmXmXMXMXmXmX,X].C 8 # = : : w g D D ! ( v.Q.|.0XuXNXMXMXDXDXKXKXKXAXAXAX",
"GXGXMXMXvXMXMXMXMXmXmXrX2X_.d.w.( R D j d d d w 6 # c K.tXNXNXcXcXMXBXmX9Xm p 9 7 8 n #XBXMXDXDXvXBXNXNXuX XN 6 : : d g D D / [ [ E.W..X0XtXbXHXHXDXDXKXKXAXAXAX",
"GXGXDXDXlXlXMXBXmXmX7X>X^.d.w.` ( R K l l j h d 2 Q 0XuXNXmXvXvXsXvXMXmX8X=.7 1 5 6 n 7XBXDXKXCXZXHXHXBXNXrX{.x d h k k U / / ] ^ $.E.W.qXyXiXbXDXVXVXVXKXAXUXAX",
"GXGXDXDXlXlXlX6XmX9X).g.t.r.{ @._ ! K D D j g d c rXuXtXmXvXZXfXfXfXnXmXrXm 5 # # 6 c 2XBXDXCXgXAXKXHXHXBXuXuX4.x k A A U / ] ] ] O.} y.S..XrXeXBXDXVXVXKXAXUXAX",
"GXUXDXDXvXlX;X$X`.~.f.s.c.M.@.o._ _ ! K D D g d ~.NXNXmXvXVXfXfXkXfXnXBXtXp 5 + + # c >XBXKXgXgXgXAXKXHXBXNXuXD.z A U U / ] ] ] O.] [ } y.A._.2XmXDXVXVXKXKXAXAX",
"UXUXDXDXHXlXoXU.z.p.h.c.c.M.@.o._ _ ! P K D j f '.BXBXHXvXfXfXkXkXfXVXBXuX8 # + O + f .XNXZXgXgXgXgXAXKXHXBXtXi.M U U U ] ] ] [ O.O.$.$.{ w.d.~.zXDXDXVXKXKXAXAX",
"AXUXKXHXGXcXoXR.a.s.t.0.0.` x.x.r.` ( ! ! K M f _.BXBXaXfXfXfXfXkXkXVXmX3X8 * & & O i .XNXnXhXgXAXAXAXJXDXMXtXp.E R / ] O.$.} } [ $.v.E.v.y.u.f.OXlXDXVXHXAXAXAX",
"AXUXCXZXHXvX;XT.f.N.N.t.c.w.W.}.[.Q.v._ _ ! M c a.tXmXvXfXZXvXZXjXCXvXNXrXf = % O O f 1XuXmXZXCXAXAXAXJXDXMXtXp.Q R / [ [ E.!.W.E.E.b.u.b.b.N.f.+XzXDXVXAXAXAXAX",
"AXUXKXHXvXMXlX$X~.W.W.N.d.~.1XyXqX1X[.{ @.' I N 6.tXBXHXvXvXMXMXDXvXNXuX1Xx w % - : M 1X2XtXMXHXKXFXAXFXDXMXtXp.) ( ^ $.E.|.qXqXqX.XW.4.i.d.B.Z.4XGXUXHXGXAXAXAX",
"AXUXKXHXvXvXcX5X'.^.~.~.K.].uXwXyX0X[.y.v.o.' L K.NXBXHXvXMXNXNXBXNXuXuX}.d w , - : d W.<X2XmXBXHXGXKXKXDXMXrXp.` _ +.$.E.XXyXqX0XuXyX{.K.f.f.z.6XGXUXHXGXGXAXAX",
"AXUXKXZXHXvXMXmX2X'.K.P.`.5XNXeXeXuX{.w.x.M.@.9.<XNXBXcXcXHXNXtXuXrX Xd.j h e > > e d f 1.~.rXBXBXHXHXDXHXmXrX~.r.@.@.{ E..XyXwXNXNXNXNX8X&X&X&XMXGXGXGXUXAXAXAX",
"AXUXKXHXHXvXMXcXuX0X2X9X8XBXBXcXcXNX{.w.b.M.x.0.<XNXmXmXBXtXrX0X Xe.N M h h g g Z g j l j 9.^.2XNXBXMXvXBXmXrX^.r.@.@.{ F..XuXpXnXMXMXBXGXmXzXzXGXGXGXGXUXAXAXAX",
"AXUXKXHXHXvXMXcXNXiXuXNXmXBXHXvXvXmX%X3.b.b.x.e.>XNXmXeX8XrXyX[.) ( R K S J S S S F D D L ' r.}.>XtXmXcXMXNXNX'.u.v.v.y.A.1XuXcXHXHXHXDXIXDXGXGXDXGXGXGXUXAXAXAX",
"UXUXKXHXHXvXvXcXbXbXbXbXcXHXZXvXMXmX@X3.d.d.i.3.,XNXmXtX@X~.}.b.( _ ! K F F F F F F G K ' ` 0.r.W.>XrXmXNXNXNX].i.u.u.i.D.>XNXcXDXDXKXKXIXKXKXIXGXGXGXGXUXAXAXAX",
"UXUXKXKXKXKXKXVXZXnXnXHXHXDXVXDXBXNX`.:.:.2.6.j.=XmXmX7X}.t.c.@._ ^ ^ ^ ~ Y X.%.~ X.~ P _ o.@.{ t.N._.2XNXNXbX;X7.6.H.7.7./.NXBXHXDXDXDXKXKXKXKXGXGXKXKXUXUXUXUX",
"IXIXKXKXKXKXKXKXZXZXZXHXVXVXVXMXcXNX4XT.T.+X#X4X6XmXmX3Xf.t.c.x.` _ ^ ~ ..X...%...+.#.n.@._ ` x.x.c.N.K.@XeXbXcXY.J.I.J.k.U.mXBXHXDXDXDXKXKXKXKXKXKXKXKXAXUXUXUX",
"IXIXKXKXKXKXKXKXHXZXZXZXVXVXVXMXbXBXbXcXBXBXbXbXlX6X8XP.8.s.c.c.r.r.v.n.n.+.O.$.+.#.!.[.!.{ ) w.t.u.d.a.j.;XBXMX6X4X8X5X5XmXNXBXHXDXDXDXKXKXKXKXKXKXKXKXKXAXUXUX",
"IXIXKXKXKXKXKXKXZXZXZXZXVXVXVXZXHXHXBXBXnXnXnXMXvXlX8Xj.6.f.e.e.1.d.Q.[.!.#.$.#.+.#.!.|.[.W.e.3.i.u.a.a.j.$XvXvXBXmXBXmXmXBXBXBXHXDXDXDXGXKXKXKXKXKXKXKXKXKXKXUX",
"IXIXKXKXKXKXKXKXVXZXZXZXZXZXZXZXnXnXnXnXnXnXnXnXHXvXcXY.k.l.a.8.l.'.<X1XQ.@.#.#.#.$.v.[. X X].L.3.a.a.j.R.6XzXGXMXBXBXBXBXBXBXBXHXDXDXDXHXHXHXHXKXKXKXKXKXKXUXUX",
"IXIXKXKXKXKXKXKXVXVXZXZXZXZXZXZXZXZXZXnXnXnXnXZXvXDXHX;Xk.5.H.L.`.9XrX2XQ.@.#.#.#.$.v.[.XX3X,X,X'.D.5.k.U.MXDXMXvXvXMXMXBXBXMXDXHXDXDXDXHXHXHXHXKXKXKXKXKXKXUXUX",
"IXIXKXKXKXKXKXKXVXVXVXVXVXVXVXVXVXHXDXZXZXZXZXDXUXGXHXoXk.R.@XrX:XmXtX2X}.r.#.#.&.$.y.[.1X2X:X:XrXI.k.k.oXGXDXVXDXDXDXDXDXDXDXDXDXDXDXDXHXHXHXHXKXKXKXKXKXUXUXUX",
"IXIXKXKXKXKXKXKXVXVXVXVXVXVXKXKXDXDXDXDXKXKXDXDXKXFXGX:X:XcXNXeXcXMXmXrX^.r.n.#.#.$.y.[.rXtXpXpXNX5X5X6X:XvXvXUXVXVXVXVXDXDXVXVXDXDXDXDXDXHXHXHXKXKXKXKXKXUXUXUX",
"UXIXKXKXKXKXKXKXKXKXKXKXKXKXKXKXKXKXKXKXKXKXKXKXKXKXKXVXVXVXVXDXVXMXmXmX Xm.n.n.#.$.W. XuXmXvXvXvXMXMXMXMXDXDXDXVXDXDXDXDXDXDXDXDXFXFXFXKXKXKXKXKXKXKXKXGXUXUXUX",
"UXIXKXKXKXFXKXKXKXKXVXVXKXKXKXKXKXKXKXKXKXKXKXKXKXKXVXVXVXVXVXVXVXMXmXmX<XN.m.V.V.M.B.{.tXmXvXZXvXvXnXnXDXDXDXDXDXDXDXDXDXDXDXDXFXFXFXFXFXFXKXKXKXKXGXKXGXUXUXUX",
"IXIXKXKXFXFXFXFXVXVXVXVXKXKXKXKXKXKXKXKXKXKXKXKXVXKXKXVXKXKXVXKXVXvXmXNX<Xd.b.m.m.c.s.~.9XmXGXfXZXnXnXnXZXZXHXHXHXHXHXHXHXHXHXDXDXDXFXDXFXFXFXFXGXGXGXGXGXUXUXUX",
"IXIXKXKXFXFXFXFXVXVXVXVXKXKXKXKXKXKXKXKXKXKXKXKXKXKXVXVXKXKXKXKXVXvXmXNX>Xa.d.d.N.N.p.7.=XMXUXfXVXnXnXnXZXZXHXHXHXHXHXHXHXHXHXHXDXDXDXDXFXFXFXFXGXGXGXGXGXUXUXUX",
"IXUXUXUXAXAXFXFXKXKXKXKXKXKXKXKXKXKXKXKXKXFXFXKXKXKXKXKXKXKXKXKXVXZXMXBX$XJ.7.K.a.f.a.j.NXMXdXhXZXVXMXMXHXHXHXHXHXHXHXHXHXHXHXKXUXGXUXUXGXGXGXGXGXGXGXGXUXUXIXIX",
"UXAXUXUXAXAXKXKXKXKXFXFXKXKXFXKXFXFXFXFXKXKXKXKXFXFXFXFXFXFXKXKXZXZXBXBXcX=X$X,X>X3X,X6XBXnXZXhXZXHXHXHXHXHXHXHXHXHXHXHXGXGXGXGXUXUXUXUXGXGXGXGXGXGXGXGXUXUXIXUX",
"AXAXUXUXAXAXAXKXAXAXAXAXUXUXUXUXAXAXAXAXUXUXUXUXAXAXAXAXKXKXKXKXHXZXHXHXBXBXNXNXBXBXBXUXHXZXZXZXZXGXGXGXGXHXGXHXHXHXGXGXUXUXUXUXUXUXUXUXGXGXGXGXGXGXGXGXUXUXUXUX",
"UXAXUXUXAXAXAXKXUXUXUXUXIXIXIXIXUXUXUXUXIXIXIXIXUXUXAXAXAXAXKXKXAXZXGXHXBXBXHXBXBXHXHXUXGXGXAXAXAXUXGXGXGXGXGXGXHXHXGXGXUXUXUXUXUXUXUXUXGXGXGXGXGXGXGXGXUXUXUXUX"
};
