/* XPM */
static char *c126c467b8e34e8a878e9bf38a3f72ddTjhUrJlcwoHte6Om[] = {
/* columns rows colors chars-per-pixel */
"80 80 253 2 ",
"   c #775336",
".  c #7C5A43",
"X  c #9D4B1D",
"o  c #96511D",
"O  c #B7591B",
"+  c #A7531B",
"@  c #AF621E",
"#  c #874E27",
"$  c #885327",
"%  c #9B542A",
"&  c #9C5B2E",
"*  c #975229",
"=  c #8A4F39",
"-  c #895738",
";  c #925533",
":  c #945C3C",
">  c #995B34",
",  c #9C4F22",
"<  c #A35529",
"1  c #AB542B",
"2  c #A45D2C",
"3  c #A95C28",
"4  c #BD5D23",
"5  c #B45C2D",
"6  c #B85825",
"7  c #A65C35",
"8  c #B65A35",
"9  c #AC4B26",
"0  c #9A6128",
"q  c #98643A",
"w  c #88613C",
"e  c #A9632B",
"r  c #BC6324",
"t  c #BB6B2C",
"y  c #B66629",
"u  c #A46234",
"i  c #AB6434",
"p  c #A3653B",
"a  c #AB6B3C",
"s  c #A86838",
"d  c #BC6534",
"f  c #BD6B33",
"g  c #B46A3A",
"h  c #BC6B3A",
"j  c #B76637",
"k  c #A9723A",
"l  c #BF703C",
"z  c #BA7437",
"x  c #D75D0C",
"c  c #CD5E1C",
"v  c #C85C19",
"b  c #D45D14",
"n  c #DA5D15",
"m  c #D35D1B",
"M  c #DB5D1C",
"N  c #C85C0E",
"B  c #E05D11",
"V  c #DB620D",
"C  c #C4641D",
"Z  c #CB651C",
"A  c #C96718",
"S  c #D36215",
"D  c #DB6415",
"F  c #D4631C",
"G  c #DB651C",
"H  c #DB681E",
"J  c #C55E23",
"K  c #CE5E23",
"L  c #C8592A",
"P  c #D55E22",
"I  c #DC5D25",
"U  c #C85B32",
"Y  c #DB5F30",
"T  c #C36423",
"R  c #CB6224",
"E  c #CA6926",
"W  c #C4642A",
"Q  c #CC642B",
"!  c #C86B29",
"~  c #D36423",
"^  c #D26329",
"/  c #D76929",
"(  c #C5712B",
")  c #C36432",
"_  c #C36937",
"`  c #CC6B33",
"'  c #C66939",
"]  c #D26736",
"[  c #C47538",
"{  c #D5733A",
"}  c #E16524",
"|  c #E46416",
" . c #8D5F54",
".. c #975F52",
"X. c #925B46",
"o. c #8D6749",
"O. c #9A6443",
"+. c #946A46",
"@. c #9D6B44",
"#. c #966A4C",
"$. c #9B744C",
"%. c #957154",
"&. c #9E795B",
"*. c #926E56",
"=. c #AB6C44",
"-. c #A46847",
";. c #B46B43",
":. c #B96C44",
">. c #AD7443",
",. c #A7764B",
"<. c #B37443",
"1. c #BB744A",
"2. c #B77748",
"3. c #A67355",
"4. c #A4735A",
"5. c #AB7D5B",
"6. c #A77758",
"7. c #B67B58",
"8. c #A66853",
"9. c #AA7D63",
"0. c #AF7D6B",
"q. c #CA6C47",
"w. c #C47B44",
"e. c #C47848",
"r. c #C57D57",
"t. c #D87854",
"y. c #B58149",
"u. c #AA825E",
"i. c #B9865A",
"p. c #9C836D",
"a. c #AC8469",
"s. c #BA8767",
"d. c #AC8D71",
"f. c #BA8B75",
"g. c #B99579",
"h. c #B09572",
"j. c #C78649",
"k. c #C58457",
"l. c #C69156",
"z. c #D98E53",
"x. c #C68B67",
"c. c #C8936B",
"v. c #D49869",
"b. c #C48E73",
"n. c #C89977",
"m. c #D69B75",
"M. c #DE8D79",
"N. c #E0916E",
"B. c #DBA36E",
"V. c #CBA27C",
"C. c #CFA676",
"Z. c #D7A67A",
"A. c #EDAB77",
"S. c #BAAA93",
"D. c #A89182",
"F. c #C99B82",
"G. c #C9A48A",
"H. c #D7AA88",
"J. c #DCB589",
"K. c #DAAA90",
"L. c #CEB69A",
"P. c #D8B395",
"I. c #CBA593",
"U. c #E5A888",
"Y. c #E4B88A",
"T. c #F6B988",
"R. c #E7B997",
"E. c #F9B995",
"W. c #F4AF88",
"Q. c #D6BAA5",
"!. c #E5BDA2",
"~. c #D7C19F",
"^. c #FDC588",
"/. c #FDC798",
"(. c #FED49A",
"). c #EDC997",
"_. c #FFE29F",
"`. c #D6C7AC",
"'. c #E9C6A9",
"]. c #FDC5A2",
"[. c #F8CAA6",
"{. c #FFD4A5",
"}. c #FFDDA4",
"|. c #FFDCAC",
" X c #FAD2AC",
".X c #E7CAB6",
"XX c #F8CCB3",
"oX c #EAD4BA",
"OX c #FED5B3",
"+X c #FEDBB4",
"@X c #FEDBBB",
"#X c #F8D6BA",
"$X c #EBD2AB",
"%X c #FFE4AD",
"&X c #FDE6A8",
"*X c #FFE2B3",
"=X c #FEEBB3",
"-X c #FFE4BB",
";X c #FFEBBD",
":X c #F7E2BE",
">X c #FFF5BC",
",X c #FEDCC3",
"<X c #F7D9C5",
"1X c #F4D6CB",
"2X c #FEE2C5",
"3X c #FFEBC4",
"4X c #FDE4CB",
"5X c #FFECCD",
"6X c #F6EDCE",
"7X c #FFF2C6",
"8X c #FFF2CD",
"9X c #FFFBCB",
"0X c #FFF9C5",
"qX c #FFE4D3",
"wX c #FEECD4",
"eX c #FFEDDB",
"rX c #F5E9D7",
"tX c #FFF4D4",
"yX c #FFFBD5",
"uX c #FFF4DC",
"iX c #FFFBDC",
"pX c #F4F3DB",
"aX c #EFF2DF",
"sX c #FEEDE3",
"dX c #FFEFE9",
"fX c #FEF4E3",
"gX c #FEFAE4",
"hX c #F6F4ED",
"jX c #FEF5EB",
"kX c #F5FCEC",
"lX c #FEFBEC",
"zX c #F5F6E3",
"xX c #EEFFFF",
"cX c #F7F7F6",
"vX c #FCF7F3",
"bX c #F5FDF3",
"nX c #FCFAF5",
"mX c #FCF7FA",
"MX c #F6FCFC",
"NX c #FBFEFB",
"BX c #F9FCF8",
"VX c #FDFCFA",
"CX c #FAF8FD",
"ZX c #FCFBFC",
"AX c #FDFBFC",
"SX c #FFF9FF",
"DX c #FFFAFC",
"FX c #FDFDFD",
"GX c #FFFDFC",
"HX c #FCFFFC",
"JX c #FEFEFE",
"KX c #FCFBFA",
"LX c #F4F0ED",
/* pixels */
"FXFXFXZXKXKXZXZXFXFXFXFXFXFXFXFXFXFXFXFXFXFXFXFXFXFXFXZXFXFXFXFXFXFXFXFXFXFXFXFXFXFXFXFXFXFXFXFXFXFXFXFXFXFXFXVXFXFXFXFXFXFXVXVXFXFXFXHXHXHXFXFXBXBXBXBXFXFXFXFX",
"FXFXFXZXKXKXKXKXZXZXZXZXZXZXZXZXFXFXFXFXFXFXFXFXFXZXKXKXFXFXFXFXFXFXFXFXFXFXFXFXFXFXFXFXFXFXFXFXVXVXVXVXVXVXVXVXVXVXVXVXVXVXVXVXVXBXBXBXBXBXHXBXBXHXBXBXFXFXFXFX",
"FXFXFXZXKXKXKXKXKXKXKXKXKXKXKXKXKXKXKXKXZXZXZXZXKXKXKXKXZXZXZXZXZXZXZXZXZXZXZXZXZXZXZXZXZXZXZXZXKXKXKXKXKXKXKXKXKXKXKXKXKXKXKXKXKXBXBXBXBXBXBXBXBXBXBXHXFXFXFXFX",
"FXFXFXZXKXKXKXKXcXcXcXcXcXcXcXcXKXKXKXKXKXKXKXKXKXKXKXKXZXZXZXZXZXZXZXZXZXZXZXZXZXZXZXZXZXKXKXKXKXKXKXKXKXKXKXKXKXKXKXKXKXKXKXKXnXnXnXnXnXnXnXnXHXHXBXBXFXFXFXFX",
"FXFXFXZXKXKXKXKXcXcXcXcXcXcXcXcXKXKXKXKXKXKXKXKXKXKXKXKXKXKXKXKXZXZXZXZXZXZXZXZXZXZXZXKXKXKXKXKXKXKXKXKXKXKXKXKXKXKXKXKXKXKXKXKXKXBXBXBXBXBXBXBXBXBXBXBXBXBXHXHX",
"FXFXFXZXKXKXKXKXKXcXKXKXKXKXcXKXKXKXKXKXKXKXKXKXKXKXKXKXKXKXKXKXZXZXZXZXZXZXZXZXZXZXZXKXKXKXKXKXnXnXnXnXnXKXnXnXnXnXnXnXvXvXnXnXKXBXBXBXBXBXBXBXBXBXBXBXHXBXHXHX",
"FXFXZXKXKXKXKXKXKXKXcXKXcXcXcXKXKXKXKXKXKXKXKXKXKXKXKXKXKXKXKXKXZXZXZXZXZXZXZXZXZXZXZXKXKXKXKXKXnXnXnXnXnXnXnXnXnXnXnXnXKXKXKXKXKXBXBXBXBXBXBXBXBXBXBXBXBXHXHXHX",
"FXFXZXKXKXKXKXKXcXKXcXcXKXcXKXKXKXKXKXKXKXKXKXKXKXmXmXmXKXKXKXKXZXZXZXZXZXVXVXVXZXZXZXKXKXKXKXKXnXnXnXnXnXnXnXnXmXmXKXKXKXKXKXKXKXBXBXBXBXBXBXBXBXBXBXBXBXBXHXHX",
"FXFXZXKXcXcXcXcXKXcXKXKXKXKXKXKXKXKXKXKXKXKXKXKXZXZXZXZXZXZXZXFXZXZXZXZXVXvXnXnXBXHXHXHXKXKXBXBXnXbXbXbXnXvXvXnXKXCXZXZXCXmXmXKXKXBXBXBXBXBXBXBXHXHXHXHXBXBXBXBX",
"FXFXZXKXKXcXcXcXcXcXcXcXKXKXKXKXKXKXKXKXKXKXKXmXZXZXZXZXZXZXKXKXZXZXKXvXnXnXnXnXnXnXBXBXVXVXVXnXnXbXbXvXvXvXvXnXmXCXZXZXCXCXZXKXKXBXBXBXBXBXBXBXBXHXHXHXBXBXBXBX",
"FXFXZXKXKXKXcXcXcXcXKXcXcXcXcXKXKXKXKXKXKXKXKXmXZXZXZXZXZXKXvXvXKXKXvXnXlXlXlXlXlXnXlXvXvXvXvXvXvXvXvXvXvXvXvXvXmXmXmXmXmXCXZXZXKXBXBXBXBXBXBXBXBXBXFXHXBXBXBXBX",
"FXFXZXKXKXKXcXcXcXcXcXcXcXcXcXcXKXKXKXKXKXKXKXmXZXZXZXZXKXnXvXvXvXvXlXlXgXiXiXiXuXuXuXfXeXfXfXfXfXgXjXjXjXjXvXvXvXvXvXcXmXKXZXMXKXBXBXBXBXBXBXBXBXBXFXHXHXBXBXHX",
"FXFXZXKXKXKXKXcXcXcXcXcXcXcXcXcXKXKXKXKXVXVXVXZXZXZXZXKXVXnXnXnXlXlXgXiXyX3X X/.W.m.c.,.$.&.~.5XwX4X<X<XgXjXjXdXjXjXvXvXcXKXMXMXMXBXKXBXBXBXBXBXBXBXBXBXHXHXHXHX",
"FXFXZXKXKXKXcXcXcXcXcXcXcXcXKXcXKXKXKXKXVXVXVXKXZXKXKXKXnXnXnXjXuXiXtX3X/.v.e.f ' 6 h i > $.$X3X@Xm.4.a.'.wXeXeXgXgXjXlXnXcXMXMXMXBXBXBXBXBXBXBXBXBXBXBXHXHXHXHX",
"FXFXZXKXKXKXKXKXcXcXKXcXKXKXKXKXKXKXKXKXVXVXVXKXKXKXKXvXnXnXlXgX5X@XT.<.y O C v Q 4 y j <.).-X|.v.u a -.s.2XXXQ.4XfXjXjXvXMXxXxXMXBXBXBXHXHXHXHXHXHXHXHXFXFXBXBX",
"FXFXZXKXKXKXKXcXcXcXKXKXKXKXKXKXKXKXKXKXVXVXVXKXKXKXvXvXlXjXfXeX/.<.e r C Z c F ~ Q y j /.=X/.2.e 6 d e.;.{.OX5.6.'.eXeXjXbXxXxXMXMXMXMXHXHXHXHXHXFXFXHXHXHXBXBX",
"FXFXKXKXKXKXKXKXcXcXcXcXcXcXnXnXnXnXKXKXKXKXKXKXZXKXvXvXfXeXqXU.j t C Z F F ~ ~ ~ ` 3 T.=X&Xj.+ O v / { d A.{.,.=.p Z.3XuXVXMXxXMXMXMXMXHXHXHXMXBXBXBXBXBXBXBXBX",
"FXFXKXKXKXKXcXcXKXKXcXcXcXcXnXnXnXnXKXKXKXKXKXKXFXvXvXjXeX,XM.8 W Z S S D D ~ R E ( z %X&Xl.z T N b ~ / W z.%Xk.i < , c.2XuXLXMXMXcXMXMXHXHXHXHXBXBXBXBXBXBXBXBX",
"FXFXKXKXcXcXcXcXKXKXKXKXcXcXnXnXnXnXnXKXvXvXKXnXHXvXlXuX5Xr.1 6 R S n V V D F E @ z /.=XT.3 r v S S F ~ 4 w.%XB.d ) _ X 7.,XeXvXvXnXbXBXBXBXMXHXHXHXBXBXBXBXHXHX",
"FXFXKXKXcXcXcXcXKXKXKXKXcXcXnXnXnXnXnXKXvXvXvXnXBXvXgXtXs., _ J m n x x V V A ! @ j.=X}.e.O v m D D F ~ O [ }.T.) K J 6 5 7.,XqXjXlXvXvXbXBXMXMXHXHXBXBXHXHXHXHX",
"FXFXKXcXcXcXKXKXcXcXcXKXnXnXnXnXnXnXKXKXvXvXvXvXcXnXfXg.q i y W ~ G n x D S C ( 0 ^.=X/.' K I n D G H ~ 4 [ }.^.` / P K Q X =.@XgXsXlXvXnXVXHXMXHXHXBXBXBXBXHXHX",
"FXFXKXcXcXcXKXKXcXcXcXKXnXnXnXnXnXKXKXKXvXvXvXvXnXfXQ.o.q u e 3 4 R ~ F F Z T z k %X{.r.) P M B D G H ~ 4 [ }.^./ } n b v 4 + c.tXfXjXlXvXVXMXMXHXHXBXBXBXBXHXHX",
"FXFXKXcXKXKXKXKXcXcXcXcXnXnXnXnXnXnXKXKXvXvXvXnXnXrXp.o.6.s.C.A.A.z.W E R T W l ^.=XE.8 U ^ n B D G H ~ 4 [ }.^./ H x x S O [ u ).eXfXjXvXVXHXMXHXHXHXHXBXBXBXHX",
"FXFXKXcXKXKXKXKXcXmXmXmXnXcXnXnXnXnXKXnXvXVXvXvXnXrXoX4XwXtXtXtX3X-XT.z.f y j :.|.{.;.8 W R n | | G H ~ r [ _.^.! H S x S Z ( e -.@X5XgXlXVXHXMXHXHXHXHXBXBXHXHX",
"FXFXKXKXKXKXKXcXmXmXmXcXvXnXnXnXnXnXcXvXvXvXvXvXvXvXlXjXjXjXgXfXgXtX8X*XY.>.& v.*XC.2.g 5 ] / G b D G / r [ _.^.! ~ c v v C R r i i.3XgXlXBXMXMXHXFXBXBXBXBXHXHX",
"FXFXKXKXKXKXKXmXmXmXcXcXvXvXvXnXnXhXvXFXvXvXvXvXvXvXvXvXvXvXvXvXlXjXgXiXyX+XC.Z.R.6.,.s j t T E F F ~ ~ r j.(.(.t R J J R R R W 5 =.$XtXlXbXMXMXHXHXHXBXBXHXHXHX",
"FXFXKXKXKXKXcXmXmXmXcXcXvXvXvXnXnXjXjXjXjXjXzXkXlXlXlXlXjXvXnXbXbXbXlXjXfXuXtX@XK.f.5.c.B.A.A.z.` ` ` { f y.&X^.t C C T T E E ` U 1 Z.tXgXnXMXMXHXHXBXBXBXBXFXHX",
"FXFXKXKXKXcXcXmXmXmXmXcXvXvXvXlXgXlXeX1XqXfXpXpXgXgXjXjXjXjXvXcXMXMXcXvXfXjXrXfXqX@X@X3X9X>X&X&X/.A.e.i a l.|.(.y T T T ! ! ! ` ] 8 =.2XuXvXHXMXHXHXBXBXBXBXFXFX",
"FXFXBXcXKXKXKXKXKXKXmXvXKXvXvXfXfXeX!.....f..X<XoXoXeXjXjXvXcXKXMXMXMXcXKXvXvXjXjXfXuXtX3X*X(.|.7X-XJ.$.q 7. XA._ W W 4 W ` { ] ] q.7 XXuXvXBXMXHXHXHXBXBXBXBXHX",
"FXFXBXcXKXKXKXKXKXKXnXvXvXvXhXjXuX,X4.= X.8.4.9.%.d.4XfXjXjXcXmXCXMXCXMXZXZXZXKXvXjXfXuXtXV.@.n.2XtXtX#XP.H.b.7 :.j 5 1 1 j h d ' ' 7 U.uXjXVXHXHXHXBXBXBXBXHXHX",
"HXHXKXcXKXKXKXKXKXmXnXvXVXvXvXjX#Xf.: 3.s.b.s.4.#.a.#XfXgXjXvXcXmXmXmXmXCXCXCXmXcXvXjXfXwX$.# 5.qXjXjXuXuX4X'.H.U.U.E.E./.W.v.2.2 g i i.uXjXnXBXBXBXBXBXBXBXBXBX",
"HXHXKXcXKXKXKXKXKXKXnXvXnXvXrXD.X.O.s.'.4X4X@Xn.+.$.P.wXfXjXlXvXvXvXmXmXmXmXZXCXmXvXjXfX,X: ; f.sXvXfXjXgXuXuXtXwXwXeXuXeXeX4XOXi.0 # 6.uXjXvXnXVXBXBXHXBXBXBXBX",
"HXHXMXcXZXZXmXCXKXKXnXvXlXjXoX. - 8.XX4XeXeXsXeXC.q s.+XuXlXnXvXnXnXnXnXKXKXKXZXCXvXjXjX'.; ; F.fXvXvXvXlXlXjXjXgXgXfXfXgXgXfXuX,Xg.  *.fXjXvXvXVXFXFXFXFXFXFXFX",
"HXHXMXcXKXZXmXmXKXnXnXvXlXgXoX%.- f.5XuXuXfXjXeX+Xi.q u.`.gXjXnXnXKXnXnXBXBXBXZXZXmXjXfXV.# -.'.jXvXcXvXcXcXvXvXjXjXjXjXlXlXlXjXgXuXS.S.jXlXnXKXVXZXFXFXFXFXFXFX",
"HXHXMXcXKXKXmXmXKXnXnXlXjXgXeXG.u.J.8XtXuXfXfXuX8XZ.,.o.h.zXlXvXnXKXKXBXBXBXBXKXFXKXjXwXa.# 7.,XjXvXvXhXvXcXvXvXvXjXjXjXvXlXlXjXjXjXjXfXlXvXvXVXVXVXFXFXFXFXFXFX",
"HXHXMXcXKXKXmXmXKXnXnXlXjXuX4XG.5.H.-X8XtXuXfXuX-XZ.,.4.`.lXjXFXKXKXBXBXBXBXBXKXVXVXjXqX$.q n.eXjXvXvXvXvXcXvXvXvXvXvXvXvXvXvXvXjXjXjXnXvXvXvXnXvXVXFXFXFXFXFXFX",
"HXHXMXcXcXKXmXmXKXnXnXlXjXfX<X&.,.i.+XyXtXwXrXeX+Xs.@.P.fXlXcXKXKXVXVXVXBXVXVXnXVXlXnX.X  ,.'.lXjXvXcXcXcXvXvXvXcXcXcXcXcXcXvXnXvXvXvXvXvXvXvXvXvXKXFXFXFXFXFXFX",
"HXMXMXcXcXKXmXmXKXnXnXlXjXgX4Xo.q ,.Y.7XtXuXfXuXn.O.9.,XgXvXmXCXKXVXVXVXVXVXVXnXvXfXfXG.w u.,XlXvXvXvXvXvXvXvXvXcXcXcXcXcXmXKXKXKXKXBXnXbXvXvXvXvXKXFXFXFXFXFXFX",
"MXMXMXcXcXKXKXKXKXnXvXlXlXgXeXn.=.a y.R.#X2X,Xf.+.-.b.qXfXvXmXZXKXVXZXFXZXZXZXnXnXlXrXp.- V.tXjXvXnXnXnXnXKXKXKXmXmXmXmXmXmXKXZXMXMXMXBXbXnXnXnXvXKXVXVXFXVXVXVX",
"HXHXMXcXcXKXKXKXnXnXvXvXlXjXgXtXOXm.@.+.#.%.. o.o.#..XfXjXvXmXZXKXZXZXFXZXZXZXnXkXgX<X. o.!.uXzXvXnXnXnXKXKXKXKXcXcXmXmXmXmXZXZXMXMXMXMXBXbXvXvXvXvXVXVXFXVXVXVX",
"FXFXKXcXKXKXvXvXnXnXvXvXvXvXlXgXiX5XV.+.- %.S.L.S.S.fXjXvXvXZXZXZXKXZXZXZXZXFXbXkXlXI.X. .1XjXvXnXnXnXnXmXmXKXKXKXKXmXmXmXmXmXKXZXMXMXMXKXKXKXKXVXVXVXVXVXVXVXVX",
"FXFXKXKXmXKXvXvXnXnXvXvXnXvXnXlX6XtX5Xd.o.h.8XiXpXzXlXvXvXKXZXZXZXKXZXZXZXZXFXnXlXgXa.=  .qXvXvXnXnXnXnXmXmXmXKXKXKXKXKXmXmXmXmXKXKXKXKXKXKXKXKXVXVXVXVXVXVXVXVX",
"FXFXBXnXnXnXnXnXnXnXvXvXvXnXbXlXgXiXiX5XoXoXiXiXgXlXvXvXnXKXKXKXZXVXVXVXVXVXVXnXgX4X#.= 0.sXvXvXnXnXnXnXKXKXKXKXKXKXKXKXKXKXKXKXKXKXKXKXKXKXBXVXVXVXVXVXVXVXVXVX",
"FXFXBXnXnXnXnXnXnXnXvXvXvXnXbXlXgXuXuXlXuXgXpXzXlXvXnXvXvXvXvXvXbXnXnXnXnXnXnXlXuX'.: : I.dXsXhXnXnXnXnXKXKXKXKXKXKXKXKXKXKXKXKXKXKXKXKXKXKXBXBXVXVXVXVXVXVXVXVX",
"FXFXKXmXmXKXKXKXnXnXvXvXnXnXvXnXlXlXlXlXlXlXgXlXvXvXvXvXvXvXvXvXvXnXnXnXnXnXnXjXuXn.# -.,XsXdXhXKXKXKXKXKXKXKXKXKXKXKXKXKXKXKXKXKXKXKXKXKXKXVXVXVXVXVXVXVXVXVXVX",
"FXFXKXmXmXKXKXKXnXnXvXvXnXnXvXvXvXvXnXnXnXlXvXvXKXKXKXnXvXvXlXlXlXlXlXlXlXlXlXgX,X7.* i.wXsXjXbXKXKXKXKXKXKXKXKXKXKXKXKXKXKXKXKXKXKXKXKXKXKXVXVXVXVXVXVXVXVXVXVX",
"FXFXKXmXmXmXnXnXnXnXvXvXnXnXnXvXvXvXvXbXbXvXvXmXZXZXKXvXvXlXlXlXlXlXlXlXlXlXlXgXOX;.< m.wXfXvXnXnXKXKXKXKXKXKXKXKXKXZXZXKXKXKXKXKXKXKXKXKXKXVXVXVXVXVXVXVXVXVXVX",
"FXFXKXKXmXmXnXnXnXvXvXvXvXvXnXnXvXvXbXbXbXVXvXvXKXKXKXvXlXjXgXgXiXiXiXiXiXiXiXtXE.8 h /.wXuXgXlXvXvXvXnXnXKXKXKXKXZXZXZXKXKXKXKXKXKXKXKXKXKXVXVXVXVXVXVXVXVXVXVX",
"FXFXKXKXcXKXnXnXnXnXKXKXKXBXbXbXbXbXbXbXVXnXnXvXnXnXlXlXfXuX4X@X+X|.|.|.;X*X|.].t.8 q.E.3XwXiXgXgXgXlXlXvXnXbXMXMXMXZXZXKXKXKXKXKXKXZXZXZXZXFXFXFXFXFXFXFXFXFXFX",
"FXFXKXKXcXKXnXnXnXnXKXKXKXKXbXbXbXbXbXkXkXlXlXnXlXgXuXwX2XR.H.x.1.w.w.j.j.w.z _ U L q.N.A.].3XtXiXeXwXuXjXlXnXbXBXKXKXKXKXKXKXKXKXKXZXZXZXZXFXFXFXFXFXFXFXFXFXFX",
"FXFXKXKXcXKXnXnXnXnXKXKXKXKXVXnXlXlXlXlXgXgXfXuX5X3X].m.r.;.:.f t W T W W W T J J L Q ' 5 5 g k.E.@XuX4XuXgXgXlXnXvXvXvXKXKXKXKXKXKXZXZXZXZXFXFXFXFXFXFXFXFXFXFX",
"FXFXKXKXcXKXKXnXnXnXKXKXKXKXVXnXlXlXgXgXlXuX4XOXB.k.g h d _ 4 Q K K K c c c F ~ ^ K R J J J 4 6 9 1.M.].5XtXiXgXgXlXlXvXvXnXKXKXKXKXZXZXZXZXFXFXFXFXFXFXFXFXFXFX",
"FXFXZXKXKXKXKXKXKXKXBXKXKXKXvXnXlXlXrXeX3XR.7.s t T W W Q Q ^ ^ P P M m m m b m c P c K c m m P ] U 9 j k.W.@X@XeXuXjXlXvXvXKXKXKXKXZXZXZXZXFXFXFXFXFXFXFXFXFXFX",
"FXFXZXKXKXKXKXKXKXKXKXBXKXKXvXnXjXlXwX@Xm.7 < d T C Z R R R Q ^ ^ P P ~ P ~ ~ ~ K K K m m b n M I Y ] ) 8 j k.E.5XwXeXfXjXcXKXMXKXKXZXZXZXZXFXFXFXFXFXFXFXFXFXFX",
"FXFXKXKXKXKXKXKXKXKXKXKXKXKXKXvXjX4XP.3.* < _ r C A A C T W ! Q Q R Q Q Q ^ Q Q Q Q J R c m b S F R J O 6 y 3 ;.c.!.4XfXjXvXKXMXKXKXZXZXZXZXFXFXFXFXFXFXFXFXFXFX",
"FXFXKXKXKXKXKXKXKXKXKXKXKXvXvXlX.X9.#.@.=.g 2 e y y y y t t f f ) f _ f h l :.h h d ) W W T T r y y z w.2 2 2 u O.#.g.qXjXvXKXZXKXKXZXZXZXZXFXFXFXFXFXFXFXFXFXFX",
"FXFXKXcXmXmXKXKXZXZXZXKXvXnXlXeXf...4.3.O.6.H.+X;X-X[.Z.2.>.2.1.:.1.i.Z.+X-X-XOXn.=.7 q.q.8 p ,.).&X;X;X+Xn.O.O.@.o.%.Q.fXvXmXZXZXKXZXZXZXZXFXFXFXFXFXFXFXFXFXFX",
"FXFXKXcXmXmXKXKXZXZXZXvXvXlXgXeXa.= #.4.P.2XuXiXiXiXiXtX X5.@.@.s.H.#XtXiXiXfXuX5XP.0.-.8.3.G.:XiXiXyXtXiXtX'.&.+.w %.Q.uXjXvXKXKXKXZXZXZXZXFXFXFXFXFXFXFXFXFXFX",
"FXFXKXcXnXnXKXKXZXZXKXvXjXgXuXwX4X.XoX5XwXgXtX6XgXuXuXfXeXwX'.'.2X2XwXuXgXgXjXlXlXuXuX4XoX4XtXiXiXiXiXuXiXtXtX5X-X).$X8XuXgXjXvXKXKXZXZXZXZXFXFXFXFXFXFXFXFXFXFX",
"FXFXKXnXnXnXKXKXZXZXcXlXuXuXwX3X5XiXiXgXiX4XeXeXuXwXeXgXtXuXtXtXiXtXtXiXuXeXwXwXuXgXgXtXyXtXtXtX8XtXtXtXtXyXiXyX0X9X9X8XtXuXuXgXvXKXZXZXZXZXFXFXFXFXFXFXFXFXFXFX",
"FXFXKXnXnXnXnXKXMXKXvXsXQ.4.b.R.yXiXtXtX5X,XK.7.=.2.c.Y.+X7X7X7X9X3X-Xx.=.=.=.2.Z.3X9X9X0X;X3X{.v.7.a ,.i.Y.=X>X=X>X>X*X[.n.7.G.jXKXZXFXFXFXFXFXFXFXFXFXFXFXFXFX",
"FXFXKXnXnXnXKXKXMXnXjXsXa.= ;.k.C.-X;X3X[.x.=.;.7 e s k C.%X=X;X*XT.1.7 1 5 d l g v.(.=X>X=XT.:.X 3 i e u k v.(.&X>X=XJ.7.=.p b.jXKXZXFXFXFXFXFXFXFXFXFXFXFXFXFX",
"FXFXKXnXnXnXnXKXMXnXjXeXa.$ u i s 2.v.k.s & 2 o 2 e s u s >.x.i.1.7 1 6 + O O e w.s <.>.2.2.i i j 1 < 3 h g e <.l.i.2.k s i s c.fXKXZXZXFXFXFXFXFXFXFXFXFXFXFXFX",
"FXFXKXnXnXnXnXKXZXnXjXuXG.- q u u 2 u s & s & q y.y.k $ q & > & % ;.1 d ' l z z u & & u * 7 % ;.& p 1.1.;.1.g 2 < % i <.& q 7.'.jXKXZXZXFXFXFXFXFXFXFXFXFXFXFXFX",
"FXVXKXKXvXKXKXKXKXvXjXfXeX'.P.5.q : ; $ - 6.!.2X3XtX@XV.@.; > 7 -.: 7.].-X-X;X*XV.3.: ; ; ; : 5.R.XX2X2X].v.a & % * ; : 6.K.2XuXjXnXKXKXKXKXKXKXVXVXVXVXFXFXFXFX",
"VXKXKXKXnXKXKXKXmXmXvXjXrXlXuX<XH.f.a.g.L.qXuXfXjXfXfXuX#XH.s.s.n.K.#XtXtXtXtXtXtXXXG.g.f.F.P.,XeXuXuXwXtX+XJ.i.i.7.n.'.4XfXlXfXvXnXKXKXKXKXKXKXVXVXVXVXFXFXFXFX",
"KXKXKXKXKXKXKXKXmXmXvXvXlXjXfXuXuXuXuXgXlXjXlXlXhXlXjXgXfXtXtX5XeXuXgXiXiXiXgXgXiXiXuX6XuXgXuXgXlXlXgXuXuXiXtX8XtXtXiXlXjXnXnXvXvXKXKXKXKXKXKXKXVXVXVXVXFXFXFXFX",
"KXKXKXKXKXKXKXKXmXmXvXvXjXlXgXlXgXzXfXlXkXLXbXbXBXnXhXVXjXlXgXgXgXfXzXzXlXlXlXlXkXaXlXlXzXlXkXlXnXnXnXnXjXfXlXgXfXgXjXjXjXvXvXcXKXKXKXKXKXKXKXKXVXVXVXVXFXFXFXFX",
"ZXZXZXZXKXKXKXKXKXKXKXvXvXvXvXvXlXvXvXnXBXBXMXMXZXZXZXKXvXnXnXnXvXvXvXnXnXnXbXbXnXvXnXnXnXnXnXnXvXvXvXvXvXvXlXlXvXvXvXvXmXmXCXZXKXKXKXKXKXKXKXKXVXVXVXVXFXFXFXFX",
"ZXZXZXZXKXKXKXKXKXKXKXKXKXKXbXbXvXvXvXKXZXHXMXMXZXZXZXZXKXVXVXVXVXVXVXVXVXVXVXVXKXKXKXKXVXVXVXKXKXKXKXKXKXvXvXvXvXKXZXZXZXZXZXZXKXKXKXvXKXKXKXKXVXVXVXVXFXFXFXFX",
"ZXZXZXZXKXKXKXKXKXKXKXKXKXMXMXMXvXvXvXvXKXMXMXMXMXMXHXBXVXVXBXBXBXBXBXBXBXBXBXnXvXvXnXnXVXnXnXvXvXvXvXKXKXKXKXKXKXZXZXZXKXKXKXKXKXKXvXvXKXKXKXKXVXVXVXVXVXFXFXFX",
"ZXZXZXZXKXKXKXKXKXKXKXKXZXMXMXcXvXvXvXvXKXHXHXMXMXMXBXBXBXBXBXBXBXBXMXBXbXbXbXnXvXvXnXnXVXVXnXnXvXvXvXKXKXKXKXKXZXZXZXZXKXKXBXBXBXKXvXvXKXKXKXKXVXVXVXVXFXFXFXFX",
"ZXZXZXKXKXKXKXKXmXmXKXKXKXKXKXKXKXKXKXKXKXZXKXVXVXVXVXVXVXVXVXVXVXVXVXVXVXKXKXKXKXKXKXKXKXKXKXKXKXKXKXVXKXKXKXKXKXKXKXKXVXVXVXVXVXVXKXKXKXKXKXKXVXVXVXVXFXFXFXFX",
"ZXZXZXKXKXmXmXmXmXmXKXKXKXKXKXKXKXKXZXZXKXKXKXKXKXKXKXKXVXVXVXVXVXVXVXKXKXnXnXnXKXKXKXKXKXKXKXKXVXKXVXVXKXKXKXKXKXKXKXKXKXKXKXKXVXVXKXKXKXKXKXKXVXVXVXVXFXFXFXFX",
"ZXZXZXKXmXmXmXmXKXKXmXmXKXKXKXKXKXKXZXZXKXKXVXVXKXKXKXKXVXVXVXVXVXVXVXKXKXKXKXKXKXKXvXKXKXKXKXKXVXVXVXFXKXKXKXKXKXKXKXKXKXKXKXKXKXKXKXKXKXKXKXKXVXVXVXVXFXFXFXFX",
"ZXZXZXKXmXmXmXmXKXKXKXmXKXKXKXKXKXKXZXZXKXKXVXVXKXKXKXKXVXVXVXVXVXVXVXKXKXKXKXKXKXKXvXvXKXKXKXKXKXVXVXFXKXKXKXKXKXKXKXKXKXKXKXKXKXKXKXKXKXKXKXKXVXVXVXVXFXFXFXFX",
"ZXZXZXZXZXZXmXmXZXZXZXZXKXKXKXKXKXKXKXKXKXKXKXKXKXKXKXKXVXVXVXVXVXVXVXVXKXvXvXvXKXKXKXKXKXKXVXVXVXVXVXVXVXVXVXVXVXVXVXVXVXVXVXVXVXVXVXVXVXVXVXVXVXVXVXVXFXFXFXFX",
"ZXZXZXZXZXZXmXCXZXZXZXZXKXKXKXKXKXKXKXKXKXKXKXKXKXKXKXKXVXVXVXVXVXVXVXVXKXvXvXvXKXKXKXKXKXKXVXVXVXVXVXVXVXVXVXVXVXVXVXVXVXVXVXVXVXVXVXVXVXVXVXVXVXVXVXVXFXFXFXFX",
"ZXZXZXZXZXZXZXZXZXZXZXZXKXKXKXKXKXKXKXKXKXKXKXKXKXKXKXKXVXVXVXVXFXVXVXVXKXKXKXKXKXKXKXKXKXKXVXVXVXVXFXFXVXVXVXVXVXVXVXVXVXVXVXVXVXVXVXVXVXVXVXVXVXVXVXVXFXFXFXFX",
"ZXZXZXZXZXZXZXZXZXZXZXZXKXKXKXKXKXKXKXKXKXKXKXKXKXKXKXKXVXVXVXVXFXFXFXVXKXKXKXKXKXKXKXKXKXKXVXVXVXVXFXFXVXVXVXVXVXVXVXVXVXVXVXVXVXVXVXVXVXVXVXVXVXVXVXVXFXFXFXFX"
};
