/* XPM */
static char *fbc073d416aa49ebaac7b45fe0ae4342w2lQTW7Rcax1Y01A[] = {
/* columns rows colors chars-per-pixel */
"40 40 225 2 ",
"   c #6D6200",
".  c #726701",
"X  c #796A06",
"o  c #816F09",
"O  c #8D7700",
"+  c #8F7A00",
"@  c #84720D",
"#  c #937C00",
"$  c #9B7B00",
"%  c #877914",
"&  c #897A15",
"*  c #867B18",
"=  c #917E15",
"-  c #8E8100",
";  c #8F800A",
":  c #938100",
">  c #988D01",
",  c #8C8117",
"<  c #9A8B1A",
"1  c #A38800",
"2  c #AA8D00",
"3  c #B19F0D",
"4  c #A48C17",
"5  c #AB9B14",
"6  c #A5931C",
"7  c #AB931D",
"8  c #A59015",
"9  c #ACA00A",
"0  c #B2A012",
"q  c #978520",
"w  c #9E8820",
"e  c #978C28",
"r  c #AF9621",
"t  c #A1902B",
"y  c #AD9C27",
"u  c #B09B28",
"i  c #A69935",
"p  c #DBBE2C",
"a  c #D5B623",
"s  c #C4AF37",
"d  c #C6B43C",
"f  c #CCB53E",
"g  c #CEBB3A",
"h  c #C8BA35",
"j  c #D7BD37",
"k  c #D2BB3A",
"l  c #D9B83B",
"z  c #DEC82C",
"x  c #D9C728",
"c  c #D8C736",
"v  c #D5C33A",
"b  c #E1C22E",
"n  c #E1CA29",
"m  c #EDD32B",
"M  c #F8D620",
"N  c #F5DA25",
"B  c #FADC26",
"V  c #F4D52C",
"C  c #F9D72F",
"Z  c #F6DB2C",
"A  c #FCDC2B",
"S  c #E4CB34",
"D  c #E1C638",
"F  c #EFD734",
"G  c #EDD73E",
"H  c #EAD83F",
"J  c #F5D433",
"K  c #F5DB34",
"L  c #FCDB33",
"P  c #F1D43A",
"I  c #F5DB3A",
"U  c #FCDD3C",
"Y  c #FAD73F",
"T  c #FEE42D",
"R  c #FFE82F",
"E  c #FBE133",
"W  c #FCE23D",
"Q  c #AFA441",
"!  c #B5AC46",
"~  c #BAAE4C",
"^  c #B9B35D",
"/  c #BCB558",
"(  c #BCB268",
")  c #B9B679",
"_  c #C5B343",
"`  c #CBBA44",
"'  c #CCBA4B",
"]  c #C8B449",
"[  c #D5BF47",
"{  c #DABB46",
"}  c #D5BE4B",
"|  c #D5B447",
" . c #C4B555",
".. c #CFB557",
"X. c #CFBB57",
"o. c #C4BC5B",
"O. c #CCBB5D",
"+. c #D4BB52",
"@. c #D4B45A",
"#. c #D6B654",
"$. c #C8BA6A",
"%. c #C4BD71",
"&. c #DEBF75",
"*. c #E2BF6D",
"=. c #C6C04E",
"-. c #D5C044",
";. c #DCC143",
":. c #DCC64B",
">. c #D5C54B",
",. c #DED04A",
"<. c #C8C85D",
"1. c #D5C556",
"2. c #D7C850",
"3. c #DCCA53",
"4. c #DBC75B",
"5. c #E7CE47",
"6. c #EDCB43",
"7. c #E4C848",
"8. c #F3CD41",
"9. c #E7D543",
"0. c #EAD849",
"q. c #F3D543",
"w. c #F4DB43",
"e. c #FBDB43",
"r. c #F3DB4B",
"t. c #FDDB4B",
"y. c #E3CB53",
"u. c #EBC850",
"i. c #E2D351",
"p. c #E9DD53",
"a. c #E9D757",
"s. c #FADB52",
"d. c #F1DB54",
"f. c #FDE144",
"g. c #F6E447",
"h. c #EFE45A",
"j. c #F6E051",
"k. c #C5C163",
"l. c #CBC164",
"z. c #D2C864",
"x. c #DDD36C",
"c. c #D0D063",
"v. c #DDCF70",
"b. c #DBD778",
"n. c #E0C765",
"m. c #E8D766",
"M. c #E4CE7F",
"N. c #EBDB7C",
"B. c #CAC58C",
"V. c #D8D38E",
"C. c #DCD394",
"Z. c #DDDF98",
"A. c #D8D894",
"S. c #ECDD85",
"D. c #E4D48C",
"F. c #EAD380",
"G. c #E7DE98",
"H. c #EDD19F",
"J. c #F3D791",
"K. c #F8D88A",
"L. c #ECE382",
"P. c #F0E68A",
"I. c #FFF18D",
"U. c #F3E29F",
"Y. c #F8F49F",
"T. c #E2DCA3",
"R. c #ECD9A2",
"E. c #E3DDBB",
"W. c #E5E2A7",
"Q. c #EFE7A7",
"!. c #F6EAA7",
"~. c #FDECAB",
"^. c #FDEEA1",
"/. c #FEF3A9",
"(. c #EEECBA",
"). c #E1E0BC",
"_. c #F4EAB4",
"`. c #FFEFBF",
"'. c #F3E8B7",
"]. c #FFFCB5",
"[. c #FDF5BC",
"{. c #FFFDBD",
"}. c #F9F1B4",
"|. c #F3E3C4",
" X c #FFF6C5",
".X c #FFFCC2",
"XX c #F6F4CD",
"oX c #FFF4CB",
"OX c #FEFCCC",
"+X c #F7EDD9",
"@X c #FEF7D4",
"#X c #FFFDD3",
"$X c #FDF4DC",
"%X c #FFFEDC",
"&X c #F5F3D2",
"*X c #FFFEE3",
"=X c #F7F3EB",
"-X c #FFF4EC",
";X c #FFFDEB",
":X c #FAEFF7",
">X c #FDF6F4",
",X c #FEFDF5",
"<X c #FEF6FD",
"1X c #FEFAFA",
"2X c #FAFFF9",
"3X c #FFFFF9",
"4X c #FFFFF9",
"5X c #FFFFFB",
"6X c #FFFFFB",
"7X c #FDFDFA",
"8X c #FFFBFF",
"9X c #FEF9FE",
"0X c #F9FEFD",
"qX c #FAFEFE",
"wX c #FDFFFD",
"eX c #FFFFFD",
"rX c #FFFEFD",
"tX c #FFFDFF",
"yX c #FDFFFF",
"uX c #FCFFFF",
"iX c #FFFEFF",
"pX c white",
"aX c #FEFEFE",
"sX c #FEFDFD",
"dX c #FEFEFE",
/* pixels */
"pXpXpXpXpXpXpXpXpXpXpXpXpXpXpXpXpXpXpXpXpXpXpXpXpXpXpXpXpXpXpXpXpXpXpXpXpXpXpXpX",
"pXpXpXpXpXpXpXpXpXpXpXpXpXpXpXpXpXpXpXpXpXpXpXpXpXpXpXpXpXpXpXpXpXpXpXpXpXpXpXpX",
"pXpXpXpXpXpXpXpXpXpXpXpXpXpXpXpXpXpX5X4X4X5XpXpXpXpXpXpXpXpXpXpXpXpXpXpXpXpXpXpX",
"pXpXpXpXpXpXpXpXpXpXpXpXpXpXpXpXpX4X*X%X%X*X4XpXpXpXpXpXpXpXpXpXpXpXpXpXpXpXpXpX",
"pXpXpXpXpXpXpXpXpXpXpXpXpXpXpXpX1X*XG.o.l.].;XpXpXpXpXpXpXpXpXpXpXpXpXpXpXpXpXpX",
"pXpXpXpXpXpXpXpXpXpXpXpXpXpXpXpXpX%X/ m.2.b.*X1XpXpXpXpXpXpXpXpXpXpXpXpXpXpXpXpX",
"pXpXpXpXpXpXpXpXpXpXpXpXpXpXpXpX5X*X .a.-.x.@X5XpXpXpXpXpXpXpXpXpXpXpXpXpXpXpXpX",
"pXpXpXpXpXpXpXpXpXpXpXpXpXpXpX5X4X#X4.5.j m.%X5XpXpXpXpXpXpXpXpX5X5XpXpXpXpXuXuX",
"pXpXpXpX8X:X<XpXpX8X<XpXpXpXpX4X;XR.{ t.q.f [.;X1X8X8X8X8X1X5X5X4X,XpX1XpXpXpX2X",
"pXpXpXpX<X8X>X,X4X,X8XpXpX5X5X;X@X$.s.L U j M.@X4XpXpXpX8X=X;X*X4X,X1X8XpX2XuXuX",
"uXpX5XpXpX<X4X*XXX#X,X5X,X,X4X*XD.:.Y A A I s /.;XpX4X4X4X;X#XOX%X4X<X8X5X2XuXuX",
"uXpX5X5XpX>X@X) ^ b._.'.'.'.'.!.` w.E M B Z S m.[.oX X X X}.k.^ B.$XpX8X4X2XuXuX",
"pXpX5X5XpX;XA.c.p.c v -.-.[ } -.S m Z B T T m z g ` f f f g c p.k.(.=XpX5X2X2X2X",
"pXpX5X5X4X*XZ.c.9.W K K I I I I Z Z B N N N Z V V K I W K P w.7.^ (.4XpX5X5X2X2X",
"pXpXpX5X;X*X%XC.#.6.K Z K K Z Z A A Z N N N A E R T E K L e.l &.|.,X8X8X5X5XuXuX",
"pXpXpX5X,X,X;X%X[.#.P Z K I K K I I I I I I I K Z Z E W W D *.%X1X<X<X8X8XpXuXuX",
"pXpX5X5X5X5XpX1X;XH.{ e.s.1 $ $ : # # # # + O : # # 2 P t.| `.-X8X8X8X8XpXpXpXpX",
"pXpX5X5X5XpX8X8X8X*X@.u.d.k y.} ' 1.' 1._ 4.' ' 3.k p r.;.F.;X<X8X8X8X8XpXpXpX5X",
"pXpX5X5X5X8X8X8X1X$X~.@.y.: d w % i i e . ! , % i ; 0 0.] {.;XpX8X8X8X8XpXpXpX5X",
"pXpX5X5X5XpX8X8X1X;X.X..i.- u X & Q X ~   z.e * i , 5 h N.OX>X8X8X8X8X8XpXpXpX5X",
"pXpX5X5X5XpXpXpX8X*XS.[ 0.> y = o t t o @ q & % v.. p.,.z. X>X8X8XpXpXpXpXpXpX5X",
"pXpX5X5X5XpXpXpX,X#X' r.g.9 5 8 7 7 7 r 4 r 4 6 < 6 3 d._ U.;XpXpXpXpXpXpXpXpX5X",
"pXpX5X5X5XpXpX5X*XD.;.e.K x z S b S S b p b a b D x n F j.] oX,XpXpXpXpXpXpXpX5X",
"pXpX4X5XpXpX4X*X.X..6.K E E E L L L L K U L V W U K N A J ;.J.%X;X4XpXpXpXpXpX5X",
"pX5X4X5XpX5X*X!.n.7.U A A B L V A A A A A A A A L L A A J 8.| K._.%X>X8XpXpXpX5X",
"5X5X4X5X<X5XW./ :.q.q.f.P I P f.K A A B B A A C Y t.e.e.t.t.6.| ^ (.;XpXpXpX5X5X",
"4X4X5XpXpX*XV.<.p.v ` ' X.4.' -.G K K L V E K n v } +.+.3.:.9.h.o.W.;XpXpXpX5X2X",
"5X5X5XpX>X-X[.$.b.<.Y.].{..X{.S.i.G I L V W H g I.^.~.~.^.P.=.x.%.(.,X8XpXpX2X2X",
"pXpX5XpXpX8X-X$X).XX%X%X*X*X*XOXz.i.I m V w.h L.OX*X*X*X*X%XXXE.+X-X8XpX5X5XuXuX",
"pXpXpXpXpX8X8X8X1XpX4X,X,X,X2X*X{.! 0.I K 9.o.{.*X5X4X4X5X5X8X8X8X8X8X8X2X2XuXuX",
"pXpXpXpXpX1X4X5XpXpX5X4X,X,X2X,X;XC.:.I g.h Q.*X,X5X4X4X,X5XpXpX,X,X<X8X2X2XuXuX",
"pXpXpXpXpX5X,X4X5X2X2XpX2X2X2X2XpX#X>.G S 3.#X,X5X5X5X5XpXpX8X<X>X>X8X8X2X2XuXuX",
"pXpXpXpXpXpX5X5XpXpXpXpXpXpXpXpXpX#X_ w.w.` oXpXpXpXpXpXpXpXpXpXpXpXpXpXpXpXpXpX",
"pXpXpXpXpXpXpXpXpXpXpXpXpXpXpXpX>X*XO.a.a. .%X1XpXpXpXpXpXpXpXpXpXpXpXpXpXpXpXpX",
"pXpXpXpXpXpXpXpXpXpXpXpXpXpXpXpXpX;XT.( %.T.;X1XpXpXpXpXpXpXpXpXpXpXpXpXpXpXpXpX",
"pXpXpXpXpXpXpXpXpXpXpXpXpXpXpXpX1X4X*X&X%X*X5X1XpXpXpXpXpXpXpXpXpXpXpXpXpXpXpXpX",
"pXpXpXpXpXpXpXpXpXpXpXpXpXpXpXpXpXpXpXuXpXpXpXpXpXpXpXpXpXpXpXpXpXpXpXpXpXpXpXpX",
"pXpXpXpXpXpXpXpXpXpXpXpXpXpXpXpXpXpX8XqXpXpXpXpXpXpXpXpXpXpXpXpXpXpXpXpXpXpXpXpX",
"pXpXpXpXpXpXpXpXpXpXpXpXpXpXpXpXpX8X8X<X8X8XpXpXpXpXpXpXpXpXpXpXpXpXpXpXpXpXpXpX",
"pXpXpXpXpXpXpXpXpXpXpXpXpXpXpXpXpX8X<X<X8X8XpXpXpXpXpXpXpXpXpXpXpXpXpXpXpXpXpXpX"
};
